  0
SECTION
  2
HEADER
  9
$ACADVER
  1
AC1015
  9
$ACADMAINTVER
 70
    20
  9
$DWGCODEPAGE
  3
ANSI_936
  9
$INSBASE
 10
0.0
 20
0.0
 30
0.0
  9
$LIMMIN
 10
0.0
 20
0.0
  9
$LIMMAX
 10
420.0
 20
297.0
  9
$ORTHOMODE
 70
     0
  9
$REGENMODE
 70
     1
  9
$FILLMODE
 70
     1
  9
$QTEXTMODE
 70
     0
  9
$MIRRTEXT
 70
     0
  9
$LTSCALE
 40
1.0
  9
$ATTMODE
 70
     1
  9
$TEXTSIZE
 40
0.3
  9
$TRACEWID
 40
1.0
  9
$TEXTSTYLE
  7
Standard
  9
$CLAYER
  8
0
  9
$CELTYPE
  6
ByLayer
  9
$CECOLOR
 62
   256
  9
$CELTSCALE
 40
1.0
  9
$DISPSILH
 70
     0
  9
$DIMSCALE
 40
1.0
  9
$DIMASZ
 40
2.5
  9
$DIMEXO
 40
0.625
  9
$DIMDLI
 40
3.75
  9
$DIMRND
 40
0.0
  9
$DIMDLE
 40
0.0
  9
$DIMEXE
 40
1.25
  9
$DIMTP
 40
0.0
  9
$DIMTM
 40
0.0
  9
$DIMTXT
 40
2.5
  9
$DIMCEN
 40
2.5
  9
$DIMTSZ
 40
0.0
  9
$DIMTOL
 70
     0
  9
$DIMLIM
 70
     0
  9
$DIMTIH
 70
     0
  9
$DIMTOH
 70
     0
  9
$DIMSE1
 70
     0
  9
$DIMSE2
 70
     0
  9
$DIMTAD
 70
     1
  9
$DIMZIN
 70
     8
  9
$DIMBLK
  1

  9
$DIMASO
 70
     1
  9
$DIMSHO
 70
     1
  9
$DIMPOST
  1

  9
$DIMAPOST
  1

  9
$DIMALT
 70
     0
  9
$DIMALTD
 70
     3
  9
$DIMALTF
 40
0.03937007874016
  9
$DIMLFAC
 40
1.0
  9
$DIMTOFL
 70
     1
  9
$DIMTVP
 40
0.0
  9
$DIMTIX
 70
     0
  9
$DIMSOXD
 70
     0
  9
$DIMSAH
 70
     0
  9
$DIMBLK1
  1

  9
$DIMBLK2
  1

  9
$DIMSTYLE
  2
ISO-25
  9
$DIMCLRD
 70
     0
  9
$DIMCLRE
 70
     0
  9
$DIMCLRT
 70
     0
  9
$DIMTFAC
 40
1.0
  9
$DIMGAP
 40
0.625
  9
$DIMJUST
 70
     0
  9
$DIMSD1
 70
     0
  9
$DIMSD2
 70
     0
  9
$DIMTOLJ
 70
     0
  9
$DIMTZIN
 70
     8
  9
$DIMALTZ
 70
     0
  9
$DIMALTTZ
 70
     0
  9
$DIMUPT
 70
     0
  9
$DIMDEC
 70
     2
  9
$DIMTDEC
 70
     2
  9
$DIMALTU
 70
     2
  9
$DIMALTTD
 70
     3
  9
$DIMTXSTY
  7
Standard
  9
$DIMAUNIT
 70
     0
  9
$DIMADEC
 70
     0
  9
$DIMALTRND
 40
0.0
  9
$DIMAZIN
 70
     0
  9
$DIMDSEP
 70
    44
  9
$DIMATFIT
 70
     3
  9
$DIMFRAC
 70
     0
  9
$DIMLDRBLK
  1

  9
$DIMLUNIT
 70
     2
  9
$DIMLWD
 70
    -2
  9
$DIMLWE
 70
    -2
  9
$DIMTMOVE
 70
     0
  9
$LUNITS
 70
     2
  9
$LUPREC
 70
     4
  9
$SKETCHINC
 40
1.0
  9
$FILLETRAD
 40
0.0
  9
$AUNITS
 70
     0
  9
$AUPREC
 70
     0
  9
$MENU
  1
.
  9
$ELEVATION
 40
0.0
  9
$PELEVATION
 40
0.0
  9
$THICKNESS
 40
0.0
  9
$LIMCHECK
 70
     0
  9
$CHAMFERA
 40
0.0
  9
$CHAMFERB
 40
0.0
  9
$CHAMFERC
 40
0.0
  9
$CHAMFERD
 40
0.0
  9
$SKPOLY
 70
     0
  9
$TDCREATE
 40
2454460.695741099
  9
$TDUCREATE
 40
2454460.362407766
  9
$TDUPDATE
 40
2454460.697024734
  9
$TDUUPDATE
 40
2454460.363691401
  9
$TDINDWG
 40
0.0012843634
  9
$TDUSRTIMER
 40
0.0012841782
  9
$USRTIMER
 70
     1
  9
$ANGBASE
 50
0.0
  9
$ANGDIR
 70
     0
  9
$PDMODE
 70
     3
  9
$PDSIZE
 40
0.0
  9
$PLINEWID
 40
0.0
  9
$SPLFRAME
 70
     0
  9
$SPLINETYPE
 70
     6
  9
$SPLINESEGS
 70
     8
  9
$HANDSEED
  5
15033f
  9
$SURFTAB1
 70
     6
  9
$SURFTAB2
 70
     6
  9
$SURFTYPE
 70
     6
  9
$SURFU
 70
     6
  9
$SURFV
 70
     6
  9
$UCSBASE
  2

  9
$UCSNAME
  2

  9
$UCSORG
 10
0.0
 20
0.0
 30
0.0
  9
$UCSXDIR
 10
1.0
 20
0.0
 30
0.0
  9
$UCSYDIR
 10
0.0
 20
1.0
 30
0.0
  9
$UCSORTHOREF
  2

  9
$UCSORTHOVIEW
 70
     0
  9
$UCSORGTOP
 10
0.0
 20
0.0
 30
0.0
  9
$UCSORGBOTTOM
 10
0.0
 20
0.0
 30
0.0
  9
$UCSORGLEFT
 10
0.0
 20
0.0
 30
0.0
  9
$UCSORGRIGHT
 10
0.0
 20
0.0
 30
0.0
  9
$UCSORGFRONT
 10
0.0
 20
0.0
 30
0.0
  9
$UCSORGBACK
 10
0.0
 20
0.0
 30
0.0
  9
$PUCSBASE
  2

  9
$PUCSNAME
  2

  9
$PUCSORG
 10
0.0
 20
0.0
 30
0.0
  9
$PUCSXDIR
 10
1.0
 20
0.0
 30
0.0
  9
$PUCSYDIR
 10
0.0
 20
1.0
 30
0.0
  9
$PUCSORTHOREF
  2

  9
$PUCSORTHOVIEW
 70
     0
  9
$PUCSORGTOP
 10
0.0
 20
0.0
 30
0.0
  9
$PUCSORGBOTTOM
 10
0.0
 20
0.0
 30
0.0
  9
$PUCSORGLEFT
 10
0.0
 20
0.0
 30
0.0
  9
$PUCSORGRIGHT
 10
0.0
 20
0.0
 30
0.0
  9
$PUCSORGFRONT
 10
0.0
 20
0.0
 30
0.0
  9
$PUCSORGBACK
 10
0.0
 20
0.0
 30
0.0
  9
$USERI1
 70
     0
  9
$USERI2
 70
     0
  9
$USERI3
 70
     0
  9
$USERI4
 70
     0
  9
$USERI5
 70
     0
  9
$USERR1
 40
0.0
  9
$USERR2
 40
0.0
  9
$USERR3
 40
0.0
  9
$USERR4
 40
0.0
  9
$USERR5
 40
0.0
  9
$WORLDVIEW
 70
     1
  9
$SHADEDGE
 70
     3
  9
$SHADEDIF
 70
    70
  9
$TILEMODE
 70
     1
  9
$MAXACTVP
 70
    64
  9
$PINSBASE
 10
0.0
 20
0.0
 30
0.0
  9
$PLIMCHECK
 70
     0
  9
$PEXTMIN
 10
0.0
 20
0.0
 30
0.0
  9
$PEXTMAX
 10
0.0
 20
0.0
 30
0.0
  9
$PLIMMIN
 10
0.0
 20
0.0
  9
$PLIMMAX
 10
12.0
 20
9.0
  9
$UNITMODE
 70
     0
  9
$VISRETAIN
 70
     1
  9
$PLINEGEN
 70
     0
  9
$PSLTSCALE
 70
     1
  9
$TREEDEPTH
 70
  3020
  9
$CMLSTYLE
  2
Standard
  9
$CMLJUST
 70
     0
  9
$CMLSCALE
 40
20.0
  9
$PROXYGRAPHICS
 70
     1
  9
$MEASUREMENT
 70
     1
  9
$CELWEIGHT
370
    -1
  9
$ENDCAPS
280
     0
  9
$JOINSTYLE
280
     0
  9
$LWDISPLAY
290
     0
  9
$INSUNITS
 70
     4
  9
$HYPERLINKBASE
  1

  9
$STYLESHEET
  1

  9
$XEDIT
290
     1
  9
$CEPSNTYPE
380
     0
  9
$PSTYLEMODE
290
     1
  9
$FINGERPRINTGUID
  2
{FDEAD578-A652-11D2-9A35-0060089B3A3F}
  9
$VERSIONGUID
  2
{498FDF44-38C4-4775-B9B0-99772674F474}
  9
$EXTNAMES
290
     1
  9
$PSVPSCALE
 40
0.0
  9
$OLESTARTUP
290
     0
  0
ENDSEC
  0
SECTION
  2
CLASSES
  0
CLASS
  1
ACDBDICTIONARYWDFLT
  2
AcDbDictionaryWithDefault
  3
ObjectDBX Classes
 90
        0
280
     0
281
     0
  0
CLASS
  1
ACDBPLACEHOLDER
  2
AcDbPlaceHolder
  3
ObjectDBX Classes
 90
        0
280
     0
281
     0
  0
CLASS
  1
LAYOUT
  2
AcDbLayout
  3
ObjectDBX Classes
 90
        0
280
     0
281
     0
  0
CLASS
  1
DICTIONARYVAR
  2
AcDbDictionaryVar
  3
ObjectDBX Classes
 90
        0
280
     0
281
     0
  0
ENDSEC
  0
SECTION
  2
TABLES
  0
TABLE
  2
VPORT
  5
8
330
0
100
AcDbSymbolTable
 70
     2
  0
VPORT
  5
3F0D
330
8
100
AcDbSymbolTableRecord
100
AcDbViewportTableRecord
  2
*Active
 70
     0
 10
0.0
 20
0.0
 11
1.0
 21
1.0
 12
1000.514519196219
 22
620.0371668258258
 13
0.0
 23
0.0
 14
10.0
 24
10.0
 15
10.0
 25
10.0
 16
0.0
 26
0.0
 36
1.0
 17
0.0
 27
0.0
 37
0.0
 40
1240.074333651651
 41
1.613636363636363
 42
50.0
 43
0.0
 44
0.0
 50
0.0
 51
0.0
 71
     0
 72
  1000
 73
     1
 74
     3
 75
     0
 76
     0
 77
     0
 78
     0
281
     0
 65
     1
110
0.0
120
0.0
130
0.0
111
1.0
121
0.0
131
0.0
112
0.0
122
1.0
132
0.0
 79
     0
146
0.0
  0
ENDTAB
  0
TABLE
  2
LTYPE
  5
5
330
0
100
AcDbSymbolTable
 70
     1
  0
LTYPE
  5
14
330
5
100
AcDbSymbolTableRecord
100
AcDbLinetypeTableRecord
  2
ByBlock
 70
     0
  3

 72
    65
 73
     0
 40
0.0
  0
LTYPE
  5
15
330
5
100
AcDbSymbolTableRecord
100
AcDbLinetypeTableRecord
  2
ByLayer
 70
     0
  3

 72
    65
 73
     0
 40
0.0
  0
LTYPE
  5
16
330
5
100
AcDbSymbolTableRecord
100
AcDbLinetypeTableRecord
  2
Continuous
 70
     0
  3
Solid line
 72
    65
 73
     0
 40
0.0
  0
ENDTAB
  0
TABLE
  2
LAYER
  5
2
330
0
100
AcDbSymbolTable
 70
     1
  0
LAYER
  5
10
330
2
100
AcDbSymbolTableRecord
100
AcDbLayerTableRecord
  2
0
 70
     0
 62
     5
  6
Continuous
370
    -3
390
F
  0
LAYER
  5
F
330
2
100
AcDbSymbolTableRecord
100
AcDbLayerTableRecord
  2
text
 70
     0
 62
     1
  6
Continuous
370
    -3
390
F
  0
ENDTAB
  0
TABLE
  2
STYLE
  5
3
330
0
100
AcDbSymbolTable
 70
     1
  0
STYLE
  5
11
330
3
100
AcDbSymbolTableRecord
100
AcDbTextStyleTableRecord
  2
Standard
 70
     0    
 40
0.0
 41
1.0
 50
0.0
 71
     0
 42
0.3
  3
times.ttf
  4

  0
ENDTAB
  0
TABLE
  2
VIEW
  5
6
330
0
100
AcDbSymbolTable
 70
     0
  0
ENDTAB
  0
TABLE
  2
UCS
  5
7
330
0
100
AcDbSymbolTable
 70
     0
  0
ENDTAB
  0
TABLE
  2
APPID
  5
9
330
0
100
AcDbSymbolTable
 70
     1
  0
APPID
  5
12
330
9
100
AcDbSymbolTableRecord
100
AcDbRegAppTableRecord
  2
ACAD
 70
     0
  0
ENDTAB
  0
TABLE
  2
DIMSTYLE
  5
A
330
0
100
AcDbSymbolTable
 70
     1
100
AcDbDimStyleTable
 71
     0
  0
DIMSTYLE
105
27
330
A
100
AcDbSymbolTableRecord
100
AcDbDimStyleTableRecord
  2
ISO-25
 70
     0
 41
2.5
 42
0.625
 43
3.75
 44
1.25
 73
     0
 74
     0
 77
     1
 78
     8
140
2.5
141
2.5
143
0.03937007874016
147
0.625
171
     3
172
     1
271
     2
272
     2
274
     3
278
    44
283
     0
284
     8
340
11
  0
ENDTAB
  0
TABLE
  2
BLOCK_RECORD
  5
1
330
0
100
AcDbSymbolTable
 70
     1
  0
BLOCK_RECORD
  5
1F
330
1
100
AcDbSymbolTableRecord
100
AcDbBlockTableRecord
  2
*Model_Space
340
22
  0
BLOCK_RECORD
  5
50
330
1
100
AcDbSymbolTableRecord
100
AcDbBlockTableRecord
  2
*Paper_Space
340
51
  0
BLOCK_RECORD
  5
55
330
1
100
AcDbSymbolTableRecord
100
AcDbBlockTableRecord
  2
*Paper_Space0
340
56
  0
ENDTAB
  0
ENDSEC
  0
SECTION
  2
BLOCKS
  0
BLOCK
  5
20
330
1F
100
AcDbEntity
  8
0
100
AcDbBlockBegin
  2
*Model_Space
 70
     0
 10
0.0
 20
0.0
 30
0.0
  3
*Model_Space
  1

  0
ENDBLK
  5
21
330
1F
100
AcDbEntity
  8
0
100
AcDbBlockEnd
  0
BLOCK
  5
52
330
50
100
AcDbEntity
 67
     1
  8
0
100
AcDbBlockBegin
  2
*Paper_Space
 70
     0
 10
0.0
 20
0.0
 30
0.0
  3
*Paper_Space
  1

  0
ENDBLK
  5
53
330
50
100
AcDbEntity
 67
     1
  8
0
100
AcDbBlockEnd
  0
BLOCK
  5
57
330
55
100
AcDbEntity
  8
0
100
AcDbBlockBegin
  2
*Paper_Space0
 70
     0
 10
0.0
 20
0.0
 30
0.0
  3
*Paper_Space0
  1

  0
ENDBLK
  5
58
330
55
100
AcDbEntity
  8
0
100
AcDbBlockEnd
  0
ENDSEC
0
SECTION
2
ENTITIES
 0
POINT
  5
3f30
330
1F
100
AcDbEntity
8
Survey.td2
100
AcDbPoint
10
383243.859049727
20
683722.7123489951
30
159.98272848814452
 0
TEXT
  5
3f31
330
1F
100
AcDbEntity
  8
Survey.td2_Mark
  7
Standard
100
AcDbText
 10
383243.859049727
 20
683722.7123489951
 30
0.0
 40
0.2
 50
0.0
 1
 pt1(dg)
100
AcDbText
 0
TEXT
  5
3f32
330
1F
100
AcDbEntity
  8
Survey.td2_Mark
  7
Standard
100
AcDbText
 10
383243.859049727
 20
683722.4123489951
 30
159.98272848814452
 40
0.2
 50
0.0
 1
 E: 383243.859m N: 683722.7123m
100
AcDbText
 0
TEXT
  5
3f33
330
1F
100
AcDbEntity
  8
Survey.td2_Mark
  7
Standard
100
AcDbText
 10
383243.859049727
 20
683722.1123489952
 30
159.98272848814452
 40
0.2
 50
0.0
 1
 H: 159.9827m
100
AcDbText
 0
POINT
  5
3f34
330
1F
100
AcDbEntity
8
Survey.td2
100
AcDbPoint
10
383247.0531338185
20
683725.6204196753
30
160.10574365648844
 0
TEXT
  5
3f35
330
1F
100
AcDbEntity
  8
Survey.td2_Mark
  7
Standard
100
AcDbText
 10
383247.0531338185
 20
683725.6204196753
 30
0.0
 40
0.2
 50
0.0
 1
 pt2(g)
100
AcDbText
 0
TEXT
  5
3f36
330
1F
100
AcDbEntity
  8
Survey.td2_Mark
  7
Standard
100
AcDbText
 10
383247.0531338185
 20
683725.3204196752
 30
160.10574365648844
 40
0.2
 50
0.0
 1
 E: 383247.0531m N: 683725.6204m
100
AcDbText
 0
TEXT
  5
3f37
330
1F
100
AcDbEntity
  8
Survey.td2_Mark
  7
Standard
100
AcDbText
 10
383247.0531338185
 20
683725.0204196753
 30
160.10574365648844
 40
0.2
 50
0.0
 1
 H: 160.1057m
100
AcDbText
 0
POINT
  5
3f38
330
1F
100
AcDbEntity
8
Survey.td2
100
AcDbPoint
10
383262.69926220574
20
683739.2024410109
30
160.18180471118984
 0
TEXT
  5
3f39
330
1F
100
AcDbEntity
  8
Survey.td2_Mark
  7
Standard
100
AcDbText
 10
383262.69926220574
 20
683739.2024410109
 30
0.0
 40
0.2
 50
0.0
 1
 pt3(g)
100
AcDbText
 0
TEXT
  5
3f3a
330
1F
100
AcDbEntity
  8
Survey.td2_Mark
  7
Standard
100
AcDbText
 10
383262.69926220574
 20
683738.9024410108
 30
160.18180471118984
 40
0.2
 50
0.0
 1
 E: 383262.6993m N: 683739.2024m
100
AcDbText
 0
TEXT
  5
3f3b
330
1F
100
AcDbEntity
  8
Survey.td2_Mark
  7
Standard
100
AcDbText
 10
383262.69926220574
 20
683738.6024410109
 30
160.18180471118984
 40
0.2
 50
0.0
 1
 H: 160.1818m
100
AcDbText
 0
POINT
  5
3f3c
330
1F
100
AcDbEntity
8
Survey.td2
100
AcDbPoint
10
383262.989436617
20
683740.1987657375
30
160.10082094206746
 0
TEXT
  5
3f3d
330
1F
100
AcDbEntity
  8
Survey.td2_Mark
  7
Standard
100
AcDbText
 10
383262.989436617
 20
683740.1987657375
 30
0.0
 40
0.2
 50
0.0
 1
 pt4
100
AcDbText
 0
TEXT
  5
3f3e
330
1F
100
AcDbEntity
  8
Survey.td2_Mark
  7
Standard
100
AcDbText
 10
383262.989436617
 20
683739.8987657374
 30
160.10082094206746
 40
0.2
 50
0.0
 1
 E: 383262.9894m N: 683740.1988m
100
AcDbText
 0
TEXT
  5
3f3f
330
1F
100
AcDbEntity
  8
Survey.td2_Mark
  7
Standard
100
AcDbText
 10
383262.989436617
 20
683739.5987657375
 30
160.10082094206746
 40
0.2
 50
0.0
 1
 H: 160.1008m
100
AcDbText
 0
POINT
  5
3f40
330
1F
100
AcDbEntity
8
Survey.td2
100
AcDbPoint
10
383251.66980110377
20
683752.8123527599
30
160.05723177471367
 0
TEXT
  5
3f41
330
1F
100
AcDbEntity
  8
Survey.td2_Mark
  7
Standard
100
AcDbText
 10
383251.66980110377
 20
683752.8123527599
 30
0.0
 40
0.2
 50
0.0
 1
 pt5(g)
100
AcDbText
 0
TEXT
  5
3f42
330
1F
100
AcDbEntity
  8
Survey.td2_Mark
  7
Standard
100
AcDbText
 10
383251.66980110377
 20
683752.5123527598
 30
160.05723177471367
 40
0.2
 50
0.0
 1
 E: 383251.6698m N: 683752.8124m
100
AcDbText
 0
TEXT
  5
3f43
330
1F
100
AcDbEntity
  8
Survey.td2_Mark
  7
Standard
100
AcDbText
 10
383251.66980110377
 20
683752.2123527599
 30
160.05723177471367
 40
0.2
 50
0.0
 1
 H: 160.0572m
100
AcDbText
 0
POINT
  5
3f44
330
1F
100
AcDbEntity
8
Survey.td2
100
AcDbPoint
10
383242.7197744905
20
683760.9307544392
30
160.07551911016083
 0
TEXT
  5
3f45
330
1F
100
AcDbEntity
  8
Survey.td2_Mark
  7
Standard
100
AcDbText
 10
383242.7197744905
 20
683760.9307544392
 30
0.0
 40
0.2
 50
0.0
 1
 pt6(g)
100
AcDbText
 0
TEXT
  5
3f46
330
1F
100
AcDbEntity
  8
Survey.td2_Mark
  7
Standard
100
AcDbText
 10
383242.7197744905
 20
683760.6307544392
 30
160.07551911016083
 40
0.2
 50
0.0
 1
 E: 383242.7198m N: 683760.9308m
100
AcDbText
 0
TEXT
  5
3f47
330
1F
100
AcDbEntity
  8
Survey.td2_Mark
  7
Standard
100
AcDbText
 10
383242.7197744905
 20
683760.3307544392
 30
160.07551911016083
 40
0.2
 50
0.0
 1
 H: 160.0755m
100
AcDbText
 0
POINT
  5
3f48
330
1F
100
AcDbEntity
8
Survey.td2
100
AcDbPoint
10
383228.6576679878
20
683744.3492652392
30
160.11737568056344
 0
TEXT
  5
3f49
330
1F
100
AcDbEntity
  8
Survey.td2_Mark
  7
Standard
100
AcDbText
 10
383228.6576679878
 20
683744.3492652392
 30
0.0
 40
0.2
 50
0.0
 1
 pt7
100
AcDbText
 0
TEXT
  5
3f4a
330
1F
100
AcDbEntity
  8
Survey.td2_Mark
  7
Standard
100
AcDbText
 10
383228.6576679878
 20
683744.0492652392
 30
160.11737568056344
 40
0.2
 50
0.0
 1
 E: 383228.6577m N: 683744.3493m
100
AcDbText
 0
TEXT
  5
3f4b
330
1F
100
AcDbEntity
  8
Survey.td2_Mark
  7
Standard
100
AcDbText
 10
383228.6576679878
 20
683743.7492652392
 30
160.11737568056344
 40
0.2
 50
0.0
 1
 H: 160.1174m
100
AcDbText
 0
POINT
  5
3f4c
330
1F
100
AcDbEntity
8
Survey.td2
100
AcDbPoint
10
383225.2121402639
20
683740.9752696911
30
160.16835455325378
 0
TEXT
  5
3f4d
330
1F
100
AcDbEntity
  8
Survey.td2_Mark
  7
Standard
100
AcDbText
 10
383225.2121402639
 20
683740.9752696911
 30
0.0
 40
0.2
 50
0.0
 1
 pt8(dg)
100
AcDbText
 0
TEXT
  5
3f4e
330
1F
100
AcDbEntity
  8
Survey.td2_Mark
  7
Standard
100
AcDbText
 10
383225.2121402639
 20
683740.675269691
 30
160.16835455325378
 40
0.2
 50
0.0
 1
 E: 383225.2121m N: 683740.9753m
100
AcDbText
 0
TEXT
  5
3f4f
330
1F
100
AcDbEntity
  8
Survey.td2_Mark
  7
Standard
100
AcDbText
 10
383225.2121402639
 20
683740.3752696911
 30
160.16835455325378
 40
0.2
 50
0.0
 1
 H: 160.1684m
100
AcDbText
 0
POINT
  5
3f50
330
1F
100
AcDbEntity
8
Survey.td2
100
AcDbPoint
10
383253.0402886825
20
683713.6014954222
30
159.93441799525147
 0
TEXT
  5
3f51
330
1F
100
AcDbEntity
  8
Survey.td2_Mark
  7
Standard
100
AcDbText
 10
383253.0402886825
 20
683713.6014954222
 30
0.0
 40
0.2
 50
0.0
 1
 pt9(d)
100
AcDbText
 0
TEXT
  5
3f52
330
1F
100
AcDbEntity
  8
Survey.td2_Mark
  7
Standard
100
AcDbText
 10
383253.0402886825
 20
683713.3014954221
 30
159.93441799525147
 40
0.2
 50
0.0
 1
 E: 383253.0403m N: 683713.6015m
100
AcDbText
 0
TEXT
  5
3f53
330
1F
100
AcDbEntity
  8
Survey.td2_Mark
  7
Standard
100
AcDbText
 10
383253.0402886825
 20
683713.0014954222
 30
159.93441799525147
 40
0.2
 50
0.0
 1
 H: 159.9344m
100
AcDbText
 0
POINT
  5
3f54
330
1F
100
AcDbEntity
8
Survey.td2
100
AcDbPoint
10
383255.5973028736
20
683715.4515397334
30
159.9664204637371
 0
TEXT
  5
3f55
330
1F
100
AcDbEntity
  8
Survey.td2_Mark
  7
Standard
100
AcDbText
 10
383255.5973028736
 20
683715.4515397334
 30
0.0
 40
0.2
 50
0.0
 1
 pt10(d)
100
AcDbText
 0
TEXT
  5
3f56
330
1F
100
AcDbEntity
  8
Survey.td2_Mark
  7
Standard
100
AcDbText
 10
383255.5973028736
 20
683715.1515397334
 30
159.9664204637371
 40
0.2
 50
0.0
 1
 E: 383255.5973m N: 683715.4515m
100
AcDbText
 0
TEXT
  5
3f57
330
1F
100
AcDbEntity
  8
Survey.td2_Mark
  7
Standard
100
AcDbText
 10
383255.5973028736
 20
683714.8515397335
 30
159.9664204637371
 40
0.2
 50
0.0
 1
 H: 159.9664m
100
AcDbText
 0
POINT
  5
3f58
330
1F
100
AcDbEntity
8
Survey.td2
100
AcDbPoint
10
383255.577792134
20
683715.415727525
30
160.03242000513623
 0
TEXT
  5
3f59
330
1F
100
AcDbEntity
  8
Survey.td2_Mark
  7
Standard
100
AcDbText
 10
383255.577792134
 20
683715.415727525
 30
0.0
 40
0.2
 50
0.0
 1
 pt11(t)
100
AcDbText
 0
TEXT
  5
3f5a
330
1F
100
AcDbEntity
  8
Survey.td2_Mark
  7
Standard
100
AcDbText
 10
383255.577792134
 20
683715.115727525
 30
160.03242000513623
 40
0.2
 50
0.0
 1
 E: 383255.5778m N: 683715.4157m
100
AcDbText
 0
TEXT
  5
3f5b
330
1F
100
AcDbEntity
  8
Survey.td2_Mark
  7
Standard
100
AcDbText
 10
383255.577792134
 20
683714.815727525
 30
160.03242000513623
 40
0.2
 50
0.0
 1
 H: 160.0324m
100
AcDbText
 0
POINT
  5
3f5c
330
1F
100
AcDbEntity
8
Survey.td2
100
AcDbPoint
10
383273.56995980756
20
683697.156850978
30
160.24580370009957
 0
TEXT
  5
3f5d
330
1F
100
AcDbEntity
  8
Survey.td2_Mark
  7
Standard
100
AcDbText
 10
383273.56995980756
 20
683697.156850978
 30
0.0
 40
0.2
 50
0.0
 1
 pt12(d)
100
AcDbText
 0
TEXT
  5
3f5e
330
1F
100
AcDbEntity
  8
Survey.td2_Mark
  7
Standard
100
AcDbText
 10
383273.56995980756
 20
683696.856850978
 30
160.24580370009957
 40
0.2
 50
0.0
 1
 E: 383273.57m N: 683697.1569m
100
AcDbText
 0
TEXT
  5
3f5f
330
1F
100
AcDbEntity
  8
Survey.td2_Mark
  7
Standard
100
AcDbText
 10
383273.56995980756
 20
683696.556850978
 30
160.24580370009957
 40
0.2
 50
0.0
 1
 H: 160.2458m
100
AcDbText
 0
POINT
  5
3f60
330
1F
100
AcDbEntity
8
Survey.td2
100
AcDbPoint
10
383271.1859415567
20
683695.1706619718
30
160.19579607464405
 0
TEXT
  5
3f61
330
1F
100
AcDbEntity
  8
Survey.td2_Mark
  7
Standard
100
AcDbText
 10
383271.1859415567
 20
683695.1706619718
 30
0.0
 40
0.2
 50
0.0
 1
 pt13(d)
100
AcDbText
 0
TEXT
  5
3f62
330
1F
100
AcDbEntity
  8
Survey.td2_Mark
  7
Standard
100
AcDbText
 10
383271.1859415567
 20
683694.8706619717
 30
160.19579607464405
 40
0.2
 50
0.0
 1
 E: 383271.1859m N: 683695.1707m
100
AcDbText
 0
TEXT
  5
3f63
330
1F
100
AcDbEntity
  8
Survey.td2_Mark
  7
Standard
100
AcDbText
 10
383271.1859415567
 20
683694.5706619718
 30
160.19579607464405
 40
0.2
 50
0.0
 1
 H: 160.1958m
100
AcDbText
 0
POINT
  5
3f64
330
1F
100
AcDbEntity
8
Survey.td2
100
AcDbPoint
10
383279.66357270215
20
683684.777901297
30
159.76046956825323
 0
TEXT
  5
3f65
330
1F
100
AcDbEntity
  8
Survey.td2_Mark
  7
Standard
100
AcDbText
 10
383279.66357270215
 20
683684.777901297
 30
0.0
 40
0.2
 50
0.0
 1
 pt14(d)
100
AcDbText
 0
TEXT
  5
3f66
330
1F
100
AcDbEntity
  8
Survey.td2_Mark
  7
Standard
100
AcDbText
 10
383279.66357270215
 20
683684.4779012969
 30
159.76046956825323
 40
0.2
 50
0.0
 1
 E: 383279.6636m N: 683684.7779m
100
AcDbText
 0
TEXT
  5
3f67
330
1F
100
AcDbEntity
  8
Survey.td2_Mark
  7
Standard
100
AcDbText
 10
383279.66357270215
 20
683684.177901297
 30
159.76046956825323
 40
0.2
 50
0.0
 1
 H: 159.7605m
100
AcDbText
 0
POINT
  5
3f68
330
1F
100
AcDbEntity
8
Survey.td2
100
AcDbPoint
10
383283.35570017213
20
683684.590559584
30
159.72741529140927
 0
TEXT
  5
3f69
330
1F
100
AcDbEntity
  8
Survey.td2_Mark
  7
Standard
100
AcDbText
 10
383283.35570017213
 20
683684.590559584
 30
0.0
 40
0.2
 50
0.0
 1
 pt15(d)
100
AcDbText
 0
TEXT
  5
3f6a
330
1F
100
AcDbEntity
  8
Survey.td2_Mark
  7
Standard
100
AcDbText
 10
383283.35570017213
 20
683684.2905595839
 30
159.72741529140927
 40
0.2
 50
0.0
 1
 E: 383283.3557m N: 683684.5906m
100
AcDbText
 0
TEXT
  5
3f6b
330
1F
100
AcDbEntity
  8
Survey.td2_Mark
  7
Standard
100
AcDbText
 10
383283.35570017213
 20
683683.990559584
 30
159.72741529140927
 40
0.2
 50
0.0
 1
 H: 159.7274m
100
AcDbText
 0
POINT
  5
3f6c
330
1F
100
AcDbEntity
8
Survey.td2
100
AcDbPoint
10
383285.84282344044
20
683680.3516798412
30
159.6932954298088
 0
TEXT
  5
3f6d
330
1F
100
AcDbEntity
  8
Survey.td2_Mark
  7
Standard
100
AcDbText
 10
383285.84282344044
 20
683680.3516798412
 30
0.0
 40
0.2
 50
0.0
 1
 pt16(d)
100
AcDbText
 0
TEXT
  5
3f6e
330
1F
100
AcDbEntity
  8
Survey.td2_Mark
  7
Standard
100
AcDbText
 10
383285.84282344044
 20
683680.0516798411
 30
159.6932954298088
 40
0.2
 50
0.0
 1
 E: 383285.8428m N: 683680.3517m
100
AcDbText
 0
TEXT
  5
3f6f
330
1F
100
AcDbEntity
  8
Survey.td2_Mark
  7
Standard
100
AcDbText
 10
383285.84282344044
 20
683679.7516798412
 30
159.6932954298088
 40
0.2
 50
0.0
 1
 H: 159.6933m
100
AcDbText
 0
POINT
  5
3f70
330
1F
100
AcDbEntity
8
Survey.td2
100
AcDbPoint
10
383287.07964259706
20
683680.1348278169
30
159.53127413236103
 0
TEXT
  5
3f71
330
1F
100
AcDbEntity
  8
Survey.td2_Mark
  7
Standard
100
AcDbText
 10
383287.07964259706
 20
683680.1348278169
 30
0.0
 40
0.2
 50
0.0
 1
 pt17(d)
100
AcDbText
 0
TEXT
  5
3f72
330
1F
100
AcDbEntity
  8
Survey.td2_Mark
  7
Standard
100
AcDbText
 10
383287.07964259706
 20
683679.8348278168
 30
159.53127413236103
 40
0.2
 50
0.0
 1
 E: 383287.0796m N: 683680.1348m
100
AcDbText
 0
TEXT
  5
3f73
330
1F
100
AcDbEntity
  8
Survey.td2_Mark
  7
Standard
100
AcDbText
 10
383287.07964259706
 20
683679.5348278169
 30
159.53127413236103
 40
0.2
 50
0.0
 1
 H: 159.5313m
100
AcDbText
 0
POINT
  5
3f74
330
1F
100
AcDbEntity
8
Survey.td2
100
AcDbPoint
10
383287.98429185647
20
683673.7490286548
30
159.48213243064086
 0
TEXT
  5
3f75
330
1F
100
AcDbEntity
  8
Survey.td2_Mark
  7
Standard
100
AcDbText
 10
383287.98429185647
 20
683673.7490286548
 30
0.0
 40
0.2
 50
0.0
 1
 pt18(ddddd)
100
AcDbText
 0
TEXT
  5
3f76
330
1F
100
AcDbEntity
  8
Survey.td2_Mark
  7
Standard
100
AcDbText
 10
383287.98429185647
 20
683673.4490286547
 30
159.48213243064086
 40
0.2
 50
0.0
 1
 E: 383287.9843m N: 683673.749m
100
AcDbText
 0
TEXT
  5
3f77
330
1F
100
AcDbEntity
  8
Survey.td2_Mark
  7
Standard
100
AcDbText
 10
383287.98429185647
 20
683673.1490286548
 30
159.48213243064086
 40
0.2
 50
0.0
 1
 H: 159.4821m
100
AcDbText
 0
POINT
  5
3f78
330
1F
100
AcDbEntity
8
Survey.td2
100
AcDbPoint
10
383289.91587272356
20
683675.9805611244
30
159.51615122949846
 0
TEXT
  5
3f79
330
1F
100
AcDbEntity
  8
Survey.td2_Mark
  7
Standard
100
AcDbText
 10
383289.91587272356
 20
683675.9805611244
 30
0.0
 40
0.2
 50
0.0
 1
 pt19(ddddd)
100
AcDbText
 0
TEXT
  5
3f7a
330
1F
100
AcDbEntity
  8
Survey.td2_Mark
  7
Standard
100
AcDbText
 10
383289.91587272356
 20
683675.6805611243
 30
159.51615122949846
 40
0.2
 50
0.0
 1
 E: 383289.9159m N: 683675.9806m
100
AcDbText
 0
TEXT
  5
3f7b
330
1F
100
AcDbEntity
  8
Survey.td2_Mark
  7
Standard
100
AcDbText
 10
383289.91587272356
 20
683675.3805611244
 30
159.51615122949846
 40
0.2
 50
0.0
 1
 H: 159.5162m
100
AcDbText
 0
POINT
  5
3f7c
330
1F
100
AcDbEntity
8
Survey.td2
100
AcDbPoint
10
383238.10591078823
20
683745.6630059009
30
159.60927270241874
 0
TEXT
  5
3f7d
330
1F
100
AcDbEntity
  8
Survey.td2_Mark
  7
Standard
100
AcDbText
 10
383238.10591078823
 20
683745.6630059009
 30
0.0
 40
0.2
 50
0.0
 1
 pt20(Cc)
100
AcDbText
 0
TEXT
  5
3f7e
330
1F
100
AcDbEntity
  8
Survey.td2_Mark
  7
Standard
100
AcDbText
 10
383238.10591078823
 20
683745.3630059009
 30
159.60927270241874
 40
0.2
 50
0.0
 1
 E: 383238.1059m N: 683745.663m
100
AcDbText
 0
TEXT
  5
3f7f
330
1F
100
AcDbEntity
  8
Survey.td2_Mark
  7
Standard
100
AcDbText
 10
383238.10591078823
 20
683745.0630059009
 30
159.60927270241874
 40
0.2
 50
0.0
 1
 H: 159.6093m
100
AcDbText
 0
POINT
  5
3f80
330
1F
100
AcDbEntity
8
Survey.td2
100
AcDbPoint
10
383243.71375998855
20
683742.7751904589
30
159.78513724830069
 0
TEXT
  5
3f81
330
1F
100
AcDbEntity
  8
Survey.td2_Mark
  7
Standard
100
AcDbText
 10
383243.71375998855
 20
683742.7751904589
 30
0.0
 40
0.2
 50
0.0
 1
 pt21(Cc)
100
AcDbText
 0
TEXT
  5
3f82
330
1F
100
AcDbEntity
  8
Survey.td2_Mark
  7
Standard
100
AcDbText
 10
383243.71375998855
 20
683742.4751904588
 30
159.78513724830069
 40
0.2
 50
0.0
 1
 E: 383243.7138m N: 683742.7752m
100
AcDbText
 0
TEXT
  5
3f83
330
1F
100
AcDbEntity
  8
Survey.td2_Mark
  7
Standard
100
AcDbText
 10
383243.71375998855
 20
683742.1751904589
 30
159.78513724830069
 40
0.2
 50
0.0
 1
 H: 159.7851m
100
AcDbText
 0
POINT
  5
3f84
330
1F
100
AcDbEntity
8
Survey.td2
100
AcDbPoint
10
383250.46320753085
20
683750.273042139
30
159.54719680346847
 0
TEXT
  5
3f85
330
1F
100
AcDbEntity
  8
Survey.td2_Mark
  7
Standard
100
AcDbText
 10
383250.46320753085
 20
683750.273042139
 30
0.0
 40
0.2
 50
0.0
 1
 pt22(Cc)
100
AcDbText
 0
TEXT
  5
3f86
330
1F
100
AcDbEntity
  8
Survey.td2_Mark
  7
Standard
100
AcDbText
 10
383250.46320753085
 20
683749.973042139
 30
159.54719680346847
 40
0.2
 50
0.0
 1
 E: 383250.4632m N: 683750.273m
100
AcDbText
 0
TEXT
  5
3f87
330
1F
100
AcDbEntity
  8
Survey.td2_Mark
  7
Standard
100
AcDbText
 10
383250.46320753085
 20
683749.673042139
 30
159.54719680346847
 40
0.2
 50
0.0
 1
 H: 159.5472m
100
AcDbText
 0
POINT
  5
3f88
330
1F
100
AcDbEntity
8
Survey.td2
100
AcDbPoint
10
383234.8407583698
20
683749.0606950935
30
159.46038639276634
 0
TEXT
  5
3f89
330
1F
100
AcDbEntity
  8
Survey.td2_Mark
  7
Standard
100
AcDbText
 10
383234.8407583698
 20
683749.0606950935
 30
0.0
 40
0.2
 50
0.0
 1
 pt23(Cc)
100
AcDbText
 0
TEXT
  5
3f8a
330
1F
100
AcDbEntity
  8
Survey.td2_Mark
  7
Standard
100
AcDbText
 10
383234.8407583698
 20
683748.7606950934
 30
159.46038639276634
 40
0.2
 50
0.0
 1
 E: 383234.8408m N: 683749.0607m
100
AcDbText
 0
TEXT
  5
3f8b
330
1F
100
AcDbEntity
  8
Survey.td2_Mark
  7
Standard
100
AcDbText
 10
383234.8407583698
 20
683748.4606950935
 30
159.46038639276634
 40
0.2
 50
0.0
 1
 H: 159.4604m
100
AcDbText
0
ENDSEC
  0
SECTION
  2
OBJECTS
  0
DICTIONARY
  5
C
330
0
100
AcDbDictionary
281
     1
  3
ACAD_COLOR
350
6B
  3
ACAD_GROUP
350
D
  3
ACAD_LAYOUT
350
1A
  3
ACAD_MATERIAL
350
6A
  3
ACAD_MLINESTYLE
350
17
  3
ACAD_PLOTSETTINGS
350
19
  3
ACAD_PLOTSTYLENAME
350
E
  3
ACDBHEADERROUNDTRIPXREC
350
3F0E
  3
AcDbVariableDictionary
350
5E
  0
DICTIONARY
  5
6B
102
{ACAD_REACTORS
330
C
102
}
330
C
100
AcDbDictionary
281
     1
  0
DICTIONARY
  5
D
102
{ACAD_REACTORS
330
C
102
}
330
C
100
AcDbDictionary
281
     1
  0
DICTIONARY
  5
1A
102
{ACAD_REACTORS
330
C
102
}
330
C
100
AcDbDictionary
281
     1
  3
Model
350
22
  3
Layout1
350
51
  3
Layout2
350
56
  0
DICTIONARY
  5
6A
102
{ACAD_REACTORS
330
C
102
}
330
C
100
AcDbDictionary
281
     1
  0
DICTIONARY
  5
17
102
{ACAD_REACTORS
330
C
102
}
330
C
100
AcDbDictionary
281
     1
  3
Standard
350
18
  0
DICTIONARY
  5
19
102
{ACAD_REACTORS
330
C
102
}
330
C
100
AcDbDictionary
281
     1
  0
ACDBDICTIONARYWDFLT
  5
E
102
{ACAD_REACTORS
330
C
102
}
330
C
100
AcDbDictionary
281
     1
  3
Normal
350
F
100
AcDbDictionaryWithDefault
340
F
  0
DICTIONARY
  5
3F0E
102
{ACAD_REACTORS
330
C
102
}
330
C
100
AcDbDictionary
281
     1
  3
COLORDICT
350
3F10
  3
MATERIALDICT
350
3F0F
  0
DICTIONARY
  5
5E
102
{ACAD_REACTORS
330
C
102
}
330
C
100
AcDbDictionary
281
     1
  3
DIMASSOC
350
5F
  3
HIDETEXT
350
63
  3
PROJECTNAME
350
3F0C
  0
LAYOUT
  5
22
102
{ACAD_XDICTIONARY
360
3F11
102
}
102
{ACAD_REACTORS
330
1A
102
}
330
1A
100
AcDbPlotSettings
  1

  2
none_device
  4
ANSI_A_(8.50_x_11.00_Inches)
  6

 40
6.349999904632568
 41
19.04999923706055
 42
6.350006103515625
 43
19.04998779296875
 44
215.8999938964844
 45
279.3999938964844
 46
0.0
 47
0.0
 48
0.0
 49
0.0
140
0.0
141
0.0
142
1.0
143
78.436453180766
 70
 11952
 72
     0
 73
     1
 74
     0
  7

 75
     0
147
0.0127491741332998
148
0.0
149
0.0
100
AcDbLayout
  1
Model
 70
     1
 71
     0
 10
0.0
 20
0.0
 11
12.0
 21
9.0
 12
0.0
 22
0.0
 32
0.0
 14
0.0
 24
0.0
 34
0.0
 15
0.0
 25
0.0
 35
0.0
146
0.0
 13
0.0
 23
0.0
 33
0.0
 16
1.0
 26
0.0
 36
0.0
 17
0.0
 27
1.0
 37
0.0
 76
     0
330
1F
  0
LAYOUT
  5
51
102
{ACAD_XDICTIONARY
360
3F13
102
}
102
{ACAD_REACTORS
330
1A
102
}
330
1A
100
AcDbPlotSettings
  1

  2
None
  4

  6

 40
0.0
 41
0.0
 42
0.0
 43
0.0
 44
0.0
 45
0.0
 46
0.0
 47
0.0
 48
0.0
 49
0.0
140
0.0
141
0.0
142
1.0
143
1.0
 70
   688
 72
     0
 73
     0
 74
     5
  7

 75
    16
147
1.0
148
0.0
149
0.0
100
AcDbLayout
  1
Layout1
 70
     1
 71
     1
 10
0.0
 20
0.0
 11
12.0
 21
9.0
 12
0.0
 22
0.0
 32
0.0
 14
0.0
 24
0.0
 34
0.0
 15
0.0
 25
0.0
 35
0.0
146
0.0
 13
0.0
 23
0.0
 33
0.0
 16
1.0
 26
0.0
 36
0.0
 17
0.0
 27
1.0
 37
0.0
 76
     0
330
50
  0
LAYOUT
  5
56
102
{ACAD_XDICTIONARY
360
3F15
102
}
102
{ACAD_REACTORS
330
1A
102
}
330
1A
100
AcDbPlotSettings
  1

  2
None
  4

  6

 40
0.0
 41
0.0
 42
0.0
 43
0.0
 44
0.0
 45
0.0
 46
0.0
 47
0.0
 48
0.0
 49
0.0
140
0.0
141
0.0
142
1.0
143
1.0
 70
   688
 72
     0
 73
     0
 74
     5
  7

 75
    16
147
1.0
148
0.0
149
0.0
100
AcDbLayout
  1
Layout2
 70
     1
 71
     2
 10
0.0
 20
0.0
 11
12.0
 21
9.0
 12
0.0
 22
0.0
 32
0.0
 14
0.0
 24
0.0
 34
0.0
 15
0.0
 25
0.0
 35
0.0
146
0.0
 13
0.0
 23
0.0
 33
0.0
 16
1.0
 26
0.0
 36
0.0
 17
0.0
 27
1.0
 37
0.0
 76
     0
330
55
  0
MLINESTYLE
  5
18
102
{ACAD_REACTORS
330
17
102
}
330
17
100
AcDbMlineStyle
  2
STANDARD
 70
     0
  3

 62
   256
 51
90.0
 52
90.0
 71
     2
 49
0.5
 62
   256
  6
BYLAYER
 49
-0.5
 62
   256
  6
BYLAYER
  0
ACDBPLACEHOLDER
  5
6F
102
{ACAD_REACTORS
330
E
102
}
330
E
  0
XRECORD
  5
3F10
102
{ACAD_REACTORS
330
3F0E
102
}
330
3F0E
100
AcDbXrecord
280
     1
340
6B
  0
XRECORD
  5
3F0F
102
{ACAD_REACTORS
330
3F0E
102
}
330
3F0E
100
AcDbXrecord
280
     1
340
6A
  0
DICTIONARYVAR
  5
5F
102
{ACAD_REACTORS
330
5E
102
}
330
5E
100
DictionaryVariables
280
     0
  1
2
  0
DICTIONARYVAR
  5
63
102
{ACAD_REACTORS
330
5E
102
}
330
5E
100
DictionaryVariables
280
     0
  1
1
  0
DICTIONARYVAR
  5
3F0C
102
{ACAD_REACTORS
330
5E
102
}
330
5E
100
DictionaryVariables
280
     0
  1

  0
DICTIONARY
  5
3F11
330
22
100
AcDbDictionary
280
     1
281
     1
  3
ACAD_XREC_ROUNDTRIP
360
3F12
  0
DICTIONARY
  5
3F13
330
51
100
AcDbDictionary
280
     1
281
     1
  3
ACAD_XREC_ROUNDTRIP
360
3F14
  0
DICTIONARY
  5
3F15
330
56
100
AcDbDictionary
280
     1
281
     1
  3
ACAD_XREC_ROUNDTRIP
360
3F16
  0
XRECORD
  5
3F12
102
{ACAD_REACTORS
330
3F11
102
}
330
3F11
100
AcDbXrecord
280
     1
102
SHADEPLOT
 70
     0
102
SHADEPLOTRESLEVEL
 70
     2
102
SHADEPLOTCUSTOMDPI
 70
   300
  0
XRECORD
  5
3F14
102
{ACAD_REACTORS
330
3F13
102
}
330
3F13
100
AcDbXrecord
280
     1
102
SHADEPLOT
 70
     0
102
SHADEPLOTRESLEVEL
 70
     2
102
SHADEPLOTCUSTOMDPI
 70
   300
  0
XRECORD
  5
3F16
102
{ACAD_REACTORS
330
3F15
102
}
330
3F15
100
AcDbXrecord
280
     1
102
SHADEPLOT
 70
     0
102
SHADEPLOTRESLEVEL
 70
     2
102
SHADEPLOTCUSTOMDPI
 70
   300
  0
ENDSEC
  0
EOF
