  0
SECTION
  2
HEADER
  9
$ACADVER
  1
AC1015
  9
$ACADMAINTVER
 70
    20
  9
$DWGCODEPAGE
  3
ANSI_936
  9
$INSBASE
 10
0.0
 20
0.0
 30
0.0
  9
$LIMMIN
 10
0.0
 20
0.0
  9
$LIMMAX
 10
420.0
 20
297.0
  9
$ORTHOMODE
 70
     0
  9
$REGENMODE
 70
     1
  9
$FILLMODE
 70
     1
  9
$QTEXTMODE
 70
     0
  9
$MIRRTEXT
 70
     0
  9
$LTSCALE
 40
1.0
  9
$ATTMODE
 70
     1
  9
$TEXTSIZE
 40
0.3
  9
$TRACEWID
 40
1.0
  9
$TEXTSTYLE
  7
Standard
  9
$CLAYER
  8
0
  9
$CELTYPE
  6
ByLayer
  9
$CECOLOR
 62
   256
  9
$CELTSCALE
 40
1.0
  9
$DISPSILH
 70
     0
  9
$DIMSCALE
 40
1.0
  9
$DIMASZ
 40
2.5
  9
$DIMEXO
 40
0.625
  9
$DIMDLI
 40
3.75
  9
$DIMRND
 40
0.0
  9
$DIMDLE
 40
0.0
  9
$DIMEXE
 40
1.25
  9
$DIMTP
 40
0.0
  9
$DIMTM
 40
0.0
  9
$DIMTXT
 40
2.5
  9
$DIMCEN
 40
2.5
  9
$DIMTSZ
 40
0.0
  9
$DIMTOL
 70
     0
  9
$DIMLIM
 70
     0
  9
$DIMTIH
 70
     0
  9
$DIMTOH
 70
     0
  9
$DIMSE1
 70
     0
  9
$DIMSE2
 70
     0
  9
$DIMTAD
 70
     1
  9
$DIMZIN
 70
     8
  9
$DIMBLK
  1

  9
$DIMASO
 70
     1
  9
$DIMSHO
 70
     1
  9
$DIMPOST
  1

  9
$DIMAPOST
  1

  9
$DIMALT
 70
     0
  9
$DIMALTD
 70
     3
  9
$DIMALTF
 40
0.03937007874016
  9
$DIMLFAC
 40
1.0
  9
$DIMTOFL
 70
     1
  9
$DIMTVP
 40
0.0
  9
$DIMTIX
 70
     0
  9
$DIMSOXD
 70
     0
  9
$DIMSAH
 70
     0
  9
$DIMBLK1
  1

  9
$DIMBLK2
  1

  9
$DIMSTYLE
  2
ISO-25
  9
$DIMCLRD
 70
     0
  9
$DIMCLRE
 70
     0
  9
$DIMCLRT
 70
     0
  9
$DIMTFAC
 40
1.0
  9
$DIMGAP
 40
0.625
  9
$DIMJUST
 70
     0
  9
$DIMSD1
 70
     0
  9
$DIMSD2
 70
     0
  9
$DIMTOLJ
 70
     0
  9
$DIMTZIN
 70
     8
  9
$DIMALTZ
 70
     0
  9
$DIMALTTZ
 70
     0
  9
$DIMUPT
 70
     0
  9
$DIMDEC
 70
     2
  9
$DIMTDEC
 70
     2
  9
$DIMALTU
 70
     2
  9
$DIMALTTD
 70
     3
  9
$DIMTXSTY
  7
Standard
  9
$DIMAUNIT
 70
     0
  9
$DIMADEC
 70
     0
  9
$DIMALTRND
 40
0.0
  9
$DIMAZIN
 70
     0
  9
$DIMDSEP
 70
    44
  9
$DIMATFIT
 70
     3
  9
$DIMFRAC
 70
     0
  9
$DIMLDRBLK
  1

  9
$DIMLUNIT
 70
     2
  9
$DIMLWD
 70
    -2
  9
$DIMLWE
 70
    -2
  9
$DIMTMOVE
 70
     0
  9
$LUNITS
 70
     2
  9
$LUPREC
 70
     4
  9
$SKETCHINC
 40
1.0
  9
$FILLETRAD
 40
0.0
  9
$AUNITS
 70
     0
  9
$AUPREC
 70
     0
  9
$MENU
  1
.
  9
$ELEVATION
 40
0.0
  9
$PELEVATION
 40
0.0
  9
$THICKNESS
 40
0.0
  9
$LIMCHECK
 70
     0
  9
$CHAMFERA
 40
0.0
  9
$CHAMFERB
 40
0.0
  9
$CHAMFERC
 40
0.0
  9
$CHAMFERD
 40
0.0
  9
$SKPOLY
 70
     0
  9
$TDCREATE
 40
2454460.695741099
  9
$TDUCREATE
 40
2454460.362407766
  9
$TDUPDATE
 40
2454460.697024734
  9
$TDUUPDATE
 40
2454460.363691401
  9
$TDINDWG
 40
0.0012843634
  9
$TDUSRTIMER
 40
0.0012841782
  9
$USRTIMER
 70
     1
  9
$ANGBASE
 50
0.0
  9
$ANGDIR
 70
     0
  9
$PDMODE
 70
     3
  9
$PDSIZE
 40
0.1
  9
$PLINEWID
 40
0.0
  9
$SPLFRAME
 70
     0
  9
$SPLINETYPE
 70
     6
  9
$SPLINESEGS
 70
     8
  9
$HANDSEED
  5
15033f
  9
$SURFTAB1
 70
     6
  9
$SURFTAB2
 70
     6
  9
$SURFTYPE
 70
     6
  9
$SURFU
 70
     6
  9
$SURFV
 70
     6
  9
$UCSBASE
  2

  9
$UCSNAME
  2

  9
$UCSORG
 10
0.0
 20
0.0
 30
0.0
  9
$UCSXDIR
 10
1.0
 20
0.0
 30
0.0
  9
$UCSYDIR
 10
0.0
 20
1.0
 30
0.0
  9
$UCSORTHOREF
  2

  9
$UCSORTHOVIEW
 70
     0
  9
$UCSORGTOP
 10
0.0
 20
0.0
 30
0.0
  9
$UCSORGBOTTOM
 10
0.0
 20
0.0
 30
0.0
  9
$UCSORGLEFT
 10
0.0
 20
0.0
 30
0.0
  9
$UCSORGRIGHT
 10
0.0
 20
0.0
 30
0.0
  9
$UCSORGFRONT
 10
0.0
 20
0.0
 30
0.0
  9
$UCSORGBACK
 10
0.0
 20
0.0
 30
0.0
  9
$PUCSBASE
  2

  9
$PUCSNAME
  2

  9
$PUCSORG
 10
0.0
 20
0.0
 30
0.0
  9
$PUCSXDIR
 10
1.0
 20
0.0
 30
0.0
  9
$PUCSYDIR
 10
0.0
 20
1.0
 30
0.0
  9
$PUCSORTHOREF
  2

  9
$PUCSORTHOVIEW
 70
     0
  9
$PUCSORGTOP
 10
0.0
 20
0.0
 30
0.0
  9
$PUCSORGBOTTOM
 10
0.0
 20
0.0
 30
0.0
  9
$PUCSORGLEFT
 10
0.0
 20
0.0
 30
0.0
  9
$PUCSORGRIGHT
 10
0.0
 20
0.0
 30
0.0
  9
$PUCSORGFRONT
 10
0.0
 20
0.0
 30
0.0
  9
$PUCSORGBACK
 10
0.0
 20
0.0
 30
0.0
  9
$USERI1
 70
     0
  9
$USERI2
 70
     0
  9
$USERI3
 70
     0
  9
$USERI4
 70
     0
  9
$USERI5
 70
     0
  9
$USERR1
 40
0.0
  9
$USERR2
 40
0.0
  9
$USERR3
 40
0.0
  9
$USERR4
 40
0.0
  9
$USERR5
 40
0.0
  9
$WORLDVIEW
 70
     1
  9
$SHADEDGE
 70
     3
  9
$SHADEDIF
 70
    70
  9
$TILEMODE
 70
     1
  9
$MAXACTVP
 70
    64
  9
$PINSBASE
 10
0.0
 20
0.0
 30
0.0
  9
$PLIMCHECK
 70
     0
  9
$PEXTMIN
 10
0.0
 20
0.0
 30
0.0
  9
$PEXTMAX
 10
0.0
 20
0.0
 30
0.0
  9
$PLIMMIN
 10
0.0
 20
0.0
  9
$PLIMMAX
 10
12.0
 20
9.0
  9
$UNITMODE
 70
     0
  9
$VISRETAIN
 70
     1
  9
$PLINEGEN
 70
     0
  9
$PSLTSCALE
 70
     1
  9
$TREEDEPTH
 70
  3020
  9
$CMLSTYLE
  2
Standard
  9
$CMLJUST
 70
     0
  9
$CMLSCALE
 40
20.0
  9
$PROXYGRAPHICS
 70
     1
  9
$MEASUREMENT
 70
     1
  9
$CELWEIGHT
370
    -1
  9
$ENDCAPS
280
     0
  9
$JOINSTYLE
280
     0
  9
$LWDISPLAY
290
     0
  9
$INSUNITS
 70
     4
  9
$HYPERLINKBASE
  1

  9
$STYLESHEET
  1

  9
$XEDIT
290
     1
  9
$CEPSNTYPE
380
     0
  9
$PSTYLEMODE
290
     1
  9
$FINGERPRINTGUID
  2
{FDEAD578-A652-11D2-9A35-0060089B3A3F}
  9
$VERSIONGUID
  2
{498FDF44-38C4-4775-B9B0-99772674F474}
  9
$EXTNAMES
290
     1
  9
$PSVPSCALE
 40
0.0
  9
$OLESTARTUP
290
     0
  0
ENDSEC
  0
SECTION
  2
CLASSES
  0
CLASS
  1
ACDBDICTIONARYWDFLT
  2
AcDbDictionaryWithDefault
  3
ObjectDBX Classes
 90
        0
280
     0
281
     0
  0
CLASS
  1
ACDBPLACEHOLDER
  2
AcDbPlaceHolder
  3
ObjectDBX Classes
 90
        0
280
     0
281
     0
  0
CLASS
  1
LAYOUT
  2
AcDbLayout
  3
ObjectDBX Classes
 90
        0
280
     0
281
     0
  0
CLASS
  1
DICTIONARYVAR
  2
AcDbDictionaryVar
  3
ObjectDBX Classes
 90
        0
280
     0
281
     0
  0
ENDSEC
  0
SECTION
  2
TABLES
  0
TABLE
  2
VPORT
  5
8
330
0
100
AcDbSymbolTable
 70
     2
  0
VPORT
  5
3F0D
330
8
100
AcDbSymbolTableRecord
100
AcDbViewportTableRecord
  2
*Active
 70
     0
 10
0.0
 20
0.0
 11
1.0
 21
1.0
 12
1000.514519196219
 22
620.0371668258258
 13
0.0
 23
0.0
 14
10.0
 24
10.0
 15
10.0
 25
10.0
 16
0.0
 26
0.0
 36
1.0
 17
0.0
 27
0.0
 37
0.0
 40
1240.074333651651
 41
1.613636363636363
 42
50.0
 43
0.0
 44
0.0
 50
0.0
 51
0.0
 71
     0
 72
  1000
 73
     1
 74
     3
 75
     0
 76
     0
 77
     0
 78
     0
281
     0
 65
     1
110
0.0
120
0.0
130
0.0
111
1.0
121
0.0
131
0.0
112
0.0
122
1.0
132
0.0
 79
     0
146
0.0
  0
ENDTAB
  0
TABLE
  2
LTYPE
  5
5
330
0
100
AcDbSymbolTable
 70
     1
  0
LTYPE
  5
14
330
5
100
AcDbSymbolTableRecord
100
AcDbLinetypeTableRecord
  2
ByBlock
 70
     0
  3

 72
    65
 73
     0
 40
0.0
  0
LTYPE
  5
15
330
5
100
AcDbSymbolTableRecord
100
AcDbLinetypeTableRecord
  2
ByLayer
 70
     0
  3

 72
    65
 73
     0
 40
0.0
  0
LTYPE
  5
16
330
5
100
AcDbSymbolTableRecord
100
AcDbLinetypeTableRecord
  2
Continuous
 70
     0
  3
Solid line
 72
    65
 73
     0
 40
0.0
  0
ENDTAB
  0
TABLE
  2
LAYER
  5
2
330
0
100
AcDbSymbolTable
 70
     1
  0
LAYER
  5
10
330
2
100
AcDbSymbolTableRecord
100
AcDbLayerTableRecord
  2
0
 70
     0
 62
     5
  6
Continuous
370
    -3
390
F
  0
LAYER
  5
F
330
2
100
AcDbSymbolTableRecord
100
AcDbLayerTableRecord
  2
text
 70
     0
 62
     1
  6
Continuous
370
    -3
390
F
  0
ENDTAB
  0
TABLE
  2
STYLE
  5
3
330
0
100
AcDbSymbolTable
 70
     1
  0
STYLE
  5
11
330
3
100
AcDbSymbolTableRecord
100
AcDbTextStyleTableRecord
  2
Standard
 70
     0    
 40
0.0
 41
1.0
 50
0.0
 71
     0
 42
0.3
  3
times.ttf
  4

  0
ENDTAB
  0
TABLE
  2
VIEW
  5
6
330
0
100
AcDbSymbolTable
 70
     0
  0
ENDTAB
  0
TABLE
  2
UCS
  5
7
330
0
100
AcDbSymbolTable
 70
     0
  0
ENDTAB
  0
TABLE
  2
APPID
  5
9
330
0
100
AcDbSymbolTable
 70
     1
  0
APPID
  5
12
330
9
100
AcDbSymbolTableRecord
100
AcDbRegAppTableRecord
  2
ACAD
 70
     0
  0
ENDTAB
  0
TABLE
  2
DIMSTYLE
  5
A
330
0
100
AcDbSymbolTable
 70
     1
100
AcDbDimStyleTable
 71
     0
  0
DIMSTYLE
105
27
330
A
100
AcDbSymbolTableRecord
100
AcDbDimStyleTableRecord
  2
ISO-25
 70
     0
 41
2.5
 42
0.625
 43
3.75
 44
1.25
 73
     0
 74
     0
 77
     1
 78
     8
140
2.5
141
2.5
143
0.03937007874016
147
0.625
171
     3
172
     1
271
     2
272
     2
274
     3
278
    44
283
     0
284
     8
340
11
  0
ENDTAB
  0
TABLE
  2
BLOCK_RECORD
  5
1
330
0
100
AcDbSymbolTable
 70
     1
  0
BLOCK_RECORD
  5
1F
330
1
100
AcDbSymbolTableRecord
100
AcDbBlockTableRecord
  2
*Model_Space
340
22
  0
BLOCK_RECORD
  5
50
330
1
100
AcDbSymbolTableRecord
100
AcDbBlockTableRecord
  2
*Paper_Space
340
51
  0
BLOCK_RECORD
  5
55
330
1
100
AcDbSymbolTableRecord
100
AcDbBlockTableRecord
  2
*Paper_Space0
340
56
  0
ENDTAB
  0
ENDSEC
  0
SECTION
  2
BLOCKS
  0
BLOCK
  5
20
330
1F
100
AcDbEntity
  8
0
100
AcDbBlockBegin
  2
*Model_Space
 70
     0
 10
0.0
 20
0.0
 30
0.0
  3
*Model_Space
  1

  0
ENDBLK
  5
21
330
1F
100
AcDbEntity
  8
0
100
AcDbBlockEnd
  0
BLOCK
  5
52
330
50
100
AcDbEntity
 67
     1
  8
0
100
AcDbBlockBegin
  2
*Paper_Space
 70
     0
 10
0.0
 20
0.0
 30
0.0
  3
*Paper_Space
  1

  0
ENDBLK
  5
53
330
50
100
AcDbEntity
 67
     1
  8
0
100
AcDbBlockEnd
  0
BLOCK
  5
57
330
55
100
AcDbEntity
  8
0
100
AcDbBlockBegin
  2
*Paper_Space0
 70
     0
 10
0.0
 20
0.0
 30
0.0
  3
*Paper_Space0
  1

  0
ENDBLK
  5
58
330
55
100
AcDbEntity
  8
0
100
AcDbBlockEnd
  0
ENDSEC
0
SECTION
2
ENTITIES
 0
POINT
  5
3f30
330
1F
100
AcDbEntity
8
Survey.td2
100
AcDbPoint
10
388326.4370099182
20
683681.2121818559
30
190.37634260607285
 0
TEXT
  5
3f31
330
1F
100
AcDbEntity
  8
Survey.td2_Mark
  7
Standard
100
AcDbText
 10
388326.4370099182
 20
683681.2121818559
 30
190.37634260607285
 40
0.20000000298023224
 50
0.0
 1
 1
100
AcDbText
 0
TEXT
  5
3f32
330
1F
100
AcDbEntity
  8
Survey.td2_point_desc_Mark
  7
Standard
100
AcDbText
 10
388326.4370099182
 20
683681.5121818604
 30
190.37634260607285
 40
0.20000000298023224
 50
0.0
 1
(ax)
100
AcDbText
 0
TEXT
  5
3f33
330
1F
100
AcDbEntity
  8
Positions
 62
7
  7
Standard
100
AcDbText
 10
388326.4370099182
 20
683680.7121818529
 30
190.37634260607285
 40
0.20000000298023224
 50
0.0
 1
 E: 388326.437m N: 683681.2122m
100
AcDbText
 0
TEXT
  5
3f34
330
1F
100
AcDbEntity
  8
Heights
 62
24
  7
Standard
100
AcDbText
 10
388326.4370099182
 20
683680.21218185
 30
190.37634260607285
 40
0.20000000298023224
 50
0.0
 1
 H: 190.3763m
100
AcDbText
 0
POINT
  5
3f35
330
1F
100
AcDbEntity
8
Survey.td2
100
AcDbPoint
10
388315.4135895645
20
683691.2384442497
30
189.81254307292892
 0
TEXT
  5
3f36
330
1F
100
AcDbEntity
  8
Survey.td2_Mark
  7
Standard
100
AcDbText
 10
388315.4135895645
 20
683691.2384442497
 30
189.81254307292892
 40
0.20000000298023224
 50
0.0
 1
 2
100
AcDbText
 0
TEXT
  5
3f37
330
1F
100
AcDbEntity
  8
Survey.td2_point_desc_Mark
  7
Standard
100
AcDbText
 10
388315.4135895645
 20
683691.5384442542
 30
189.81254307292892
 40
0.20000000298023224
 50
0.0
 1
(stb)
100
AcDbText
 0
TEXT
  5
3f38
330
1F
100
AcDbEntity
  8
Positions
 62
7
  7
Standard
100
AcDbText
 10
388315.4135895645
 20
683690.7384442467
 30
189.81254307292892
 40
0.20000000298023224
 50
0.0
 1
 E: 388315.4136m N: 683691.2384m
100
AcDbText
 0
TEXT
  5
3f39
330
1F
100
AcDbEntity
  8
Heights
 62
24
  7
Standard
100
AcDbText
 10
388315.4135895645
 20
683690.2384442438
 30
189.81254307292892
 40
0.20000000298023224
 50
0.0
 1
 H: 189.8125m
100
AcDbText
 0
POINT
  5
3f3a
330
1F
100
AcDbEntity
8
Survey.td2
100
AcDbPoint
10
388300.4708537497
20
683673.473733902
30
190.17418141896263
 0
TEXT
  5
3f3b
330
1F
100
AcDbEntity
  8
Survey.td2_Mark
  7
Standard
100
AcDbText
 10
388300.4708537497
 20
683673.473733902
 30
190.17418141896263
 40
0.20000000298023224
 50
0.0
 1
 3
100
AcDbText
 0
TEXT
  5
3f3c
330
1F
100
AcDbEntity
  8
Survey.td2_point_desc_Mark
  7
Standard
100
AcDbText
 10
388300.4708537497
 20
683673.7737339064
 30
190.17418141896263
 40
0.20000000298023224
 50
0.0
 1
(ax)
100
AcDbText
 0
TEXT
  5
3f3d
330
1F
100
AcDbEntity
  8
Positions
 62
7
  7
Standard
100
AcDbText
 10
388300.4708537497
 20
683672.973733899
 30
190.17418141896263
 40
0.20000000298023224
 50
0.0
 1
 E: 388300.4709m N: 683673.4737m
100
AcDbText
 0
TEXT
  5
3f3e
330
1F
100
AcDbEntity
  8
Heights
 62
24
  7
Standard
100
AcDbText
 10
388300.4708537497
 20
683672.473733896
 30
190.17418141896263
 40
0.20000000298023224
 50
0.0
 1
 H: 190.1742m
100
AcDbText
 0
POINT
  5
3f3f
330
1F
100
AcDbEntity
8
Survey.td2
100
AcDbPoint
10
388285.4053563941
20
683685.711033572
30
189.32142492682843
 0
TEXT
  5
3f40
330
1F
100
AcDbEntity
  8
Survey.td2_Mark
  7
Standard
100
AcDbText
 10
388285.4053563941
 20
683685.711033572
 30
189.32142492682843
 40
0.20000000298023224
 50
0.0
 1
 4
100
AcDbText
 0
TEXT
  5
3f41
330
1F
100
AcDbEntity
  8
Survey.td2_point_desc_Mark
  7
Standard
100
AcDbText
 10
388285.4053563941
 20
683686.0110335764
 30
189.32142492682843
 40
0.20000000298023224
 50
0.0
 1
(p)
100
AcDbText
 0
TEXT
  5
3f42
330
1F
100
AcDbEntity
  8
Positions
 62
7
  7
Standard
100
AcDbText
 10
388285.4053563941
 20
683685.211033569
 30
189.32142492682843
 40
0.20000000298023224
 50
0.0
 1
 E: 388285.4054m N: 683685.711m
100
AcDbText
 0
TEXT
  5
3f43
330
1F
100
AcDbEntity
  8
Heights
 62
24
  7
Standard
100
AcDbText
 10
388285.4053563941
 20
683684.711033566
 30
189.32142492682843
 40
0.20000000298023224
 50
0.0
 1
 H: 189.3214m
100
AcDbText
 0
POINT
  5
3f44
330
1F
100
AcDbEntity
8
Survey.td2
100
AcDbPoint
10
388284.5633765607
20
683687.5055588009
30
189.38646094616277
 0
TEXT
  5
3f45
330
1F
100
AcDbEntity
  8
Survey.td2_Mark
  7
Standard
100
AcDbText
 10
388284.5633765607
 20
683687.5055588009
 30
189.38646094616277
 40
0.20000000298023224
 50
0.0
 1
 5
100
AcDbText
 0
TEXT
  5
3f46
330
1F
100
AcDbEntity
  8
Survey.td2_point_desc_Mark
  7
Standard
100
AcDbText
 10
388284.5633765607
 20
683687.8055588054
 30
189.38646094616277
 40
0.20000000298023224
 50
0.0
 1
(p)
100
AcDbText
 0
TEXT
  5
3f47
330
1F
100
AcDbEntity
  8
Positions
 62
7
  7
Standard
100
AcDbText
 10
388284.5633765607
 20
683687.0055587979
 30
189.38646094616277
 40
0.20000000298023224
 50
0.0
 1
 E: 388284.5634m N: 683687.5056m
100
AcDbText
 0
TEXT
  5
3f48
330
1F
100
AcDbEntity
  8
Heights
 62
24
  7
Standard
100
AcDbText
 10
388284.5633765607
 20
683686.505558795
 30
189.38646094616277
 40
0.20000000298023224
 50
0.0
 1
 H: 189.3865m
100
AcDbText
 0
POINT
  5
3f49
330
1F
100
AcDbEntity
8
Survey.td2
100
AcDbPoint
10
388281.87223212357
20
683685.1749318178
30
189.30441322547597
 0
TEXT
  5
3f4a
330
1F
100
AcDbEntity
  8
Survey.td2_Mark
  7
Standard
100
AcDbText
 10
388281.87223212357
 20
683685.1749318178
 30
189.30441322547597
 40
0.20000000298023224
 50
0.0
 1
 6
100
AcDbText
 0
TEXT
  5
3f4b
330
1F
100
AcDbEntity
  8
Survey.td2_point_desc_Mark
  7
Standard
100
AcDbText
 10
388281.87223212357
 20
683685.4749318223
 30
189.30441322547597
 40
0.20000000298023224
 50
0.0
 1
(p)
100
AcDbText
 0
TEXT
  5
3f4c
330
1F
100
AcDbEntity
  8
Positions
 62
7
  7
Standard
100
AcDbText
 10
388281.87223212357
 20
683684.6749318148
 30
189.30441322547597
 40
0.20000000298023224
 50
0.0
 1
 E: 388281.8722m N: 683685.1749m
100
AcDbText
 0
TEXT
  5
3f4d
330
1F
100
AcDbEntity
  8
Heights
 62
24
  7
Standard
100
AcDbText
 10
388281.87223212357
 20
683684.1749318119
 30
189.30441322547597
 40
0.20000000298023224
 50
0.0
 1
 H: 189.3044m
100
AcDbText
 0
POINT
  5
3f4e
330
1F
100
AcDbEntity
8
Survey.td2
100
AcDbPoint
10
388282.41778546927
20
683683.3287907849
30
189.44337609790728
 0
TEXT
  5
3f4f
330
1F
100
AcDbEntity
  8
Survey.td2_Mark
  7
Standard
100
AcDbText
 10
388282.41778546927
 20
683683.3287907849
 30
189.44337609790728
 40
0.20000000298023224
 50
0.0
 1
 7
100
AcDbText
 0
TEXT
  5
3f50
330
1F
100
AcDbEntity
  8
Survey.td2_point_desc_Mark
  7
Standard
100
AcDbText
 10
388282.41778546927
 20
683683.6287907894
 30
189.44337609790728
 40
0.20000000298023224
 50
0.0
 1
(p)
100
AcDbText
 0
TEXT
  5
3f51
330
1F
100
AcDbEntity
  8
Positions
 62
7
  7
Standard
100
AcDbText
 10
388282.41778546927
 20
683682.8287907819
 30
189.44337609790728
 40
0.20000000298023224
 50
0.0
 1
 E: 388282.4178m N: 683683.3288m
100
AcDbText
 0
TEXT
  5
3f52
330
1F
100
AcDbEntity
  8
Heights
 62
24
  7
Standard
100
AcDbText
 10
388282.41778546927
 20
683682.328790779
 30
189.44337609790728
 40
0.20000000298023224
 50
0.0
 1
 H: 189.4434m
100
AcDbText
 0
POINT
  5
3f53
330
1F
100
AcDbEntity
8
Survey.td2
100
AcDbPoint
10
388278.5745715928
20
683680.3835307609
30
189.37731567580482
 0
TEXT
  5
3f54
330
1F
100
AcDbEntity
  8
Survey.td2_Mark
  7
Standard
100
AcDbText
 10
388278.5745715928
 20
683680.3835307609
 30
189.37731567580482
 40
0.20000000298023224
 50
0.0
 1
 8
100
AcDbText
 0
TEXT
  5
3f55
330
1F
100
AcDbEntity
  8
Survey.td2_point_desc_Mark
  7
Standard
100
AcDbText
 10
388278.5745715928
 20
683680.6835307654
 30
189.37731567580482
 40
0.20000000298023224
 50
0.0
 1
(s)
100
AcDbText
 0
TEXT
  5
3f56
330
1F
100
AcDbEntity
  8
Positions
 62
7
  7
Standard
100
AcDbText
 10
388278.5745715928
 20
683679.8835307579
 30
189.37731567580482
 40
0.20000000298023224
 50
0.0
 1
 E: 388278.5746m N: 683680.3835m
100
AcDbText
 0
TEXT
  5
3f57
330
1F
100
AcDbEntity
  8
Heights
 62
24
  7
Standard
100
AcDbText
 10
388278.5745715928
 20
683679.383530755
 30
189.37731567580482
 40
0.20000000298023224
 50
0.0
 1
 H: 189.3773m
100
AcDbText
 0
POINT
  5
3f58
330
1F
100
AcDbEntity
8
Survey.td2
100
AcDbPoint
10
388281.36615794204
20
683684.2843624795
30
188.39939512100847
 0
TEXT
  5
3f59
330
1F
100
AcDbEntity
  8
Survey.td2_Mark
  7
Standard
100
AcDbText
 10
388281.36615794204
 20
683684.2843624795
 30
188.39939512100847
 40
0.20000000298023224
 50
0.0
 1
 9
100
AcDbText
 0
TEXT
  5
3f5a
330
1F
100
AcDbEntity
  8
Survey.td2_point_desc_Mark
  7
Standard
100
AcDbText
 10
388281.36615794204
 20
683684.5843624839
 30
188.39939512100847
 40
0.20000000298023224
 50
0.0
 1
(as)
100
AcDbText
 0
TEXT
  5
3f5b
330
1F
100
AcDbEntity
  8
Positions
 62
7
  7
Standard
100
AcDbText
 10
388281.36615794204
 20
683683.7843624764
 30
188.39939512100847
 40
0.20000000298023224
 50
0.0
 1
 E: 388281.3662m N: 683684.2844m
100
AcDbText
 0
TEXT
  5
3f5c
330
1F
100
AcDbEntity
  8
Heights
 62
24
  7
Standard
100
AcDbText
 10
388281.36615794204
 20
683683.2843624735
 30
188.39939512100847
 40
0.20000000298023224
 50
0.0
 1
 H: 188.3994m
100
AcDbText
 0
POINT
  5
3f5d
330
1F
100
AcDbEntity
8
Survey.td2
100
AcDbPoint
10
388279.4240105319
20
683683.9500441212
30
189.20238787793068
 0
TEXT
  5
3f5e
330
1F
100
AcDbEntity
  8
Survey.td2_Mark
  7
Standard
100
AcDbText
 10
388279.4240105319
 20
683683.9500441212
 30
189.20238787793068
 40
0.20000000298023224
 50
0.0
 1
 10
100
AcDbText
 0
TEXT
  5
3f5f
330
1F
100
AcDbEntity
  8
Survey.td2_point_desc_Mark
  7
Standard
100
AcDbText
 10
388279.4240105319
 20
683684.2500441257
 30
189.20238787793068
 40
0.20000000298023224
 50
0.0
 1
(lp)
100
AcDbText
 0
TEXT
  5
3f60
330
1F
100
AcDbEntity
  8
Positions
 62
7
  7
Standard
100
AcDbText
 10
388279.4240105319
 20
683683.4500441182
 30
189.20238787793068
 40
0.20000000298023224
 50
0.0
 1
 E: 388279.424m N: 683683.95m
100
AcDbText
 0
TEXT
  5
3f61
330
1F
100
AcDbEntity
  8
Heights
 62
24
  7
Standard
100
AcDbText
 10
388279.4240105319
 20
683682.9500441153
 30
189.20238787793068
 40
0.20000000298023224
 50
0.0
 1
 H: 189.2024m
100
AcDbText
 0
POINT
  5
3f62
330
1F
100
AcDbEntity
8
Survey.td2
100
AcDbPoint
10
388283.7231498114
20
683690.4535050488
30
189.400520254212
 0
TEXT
  5
3f63
330
1F
100
AcDbEntity
  8
Survey.td2_Mark
  7
Standard
100
AcDbText
 10
388283.7231498114
 20
683690.4535050488
 30
189.400520254212
 40
0.20000000298023224
 50
0.0
 1
 11
100
AcDbText
 0
TEXT
  5
3f64
330
1F
100
AcDbEntity
  8
Survey.td2_point_desc_Mark
  7
Standard
100
AcDbText
 10
388283.7231498114
 20
683690.7535050532
 30
189.400520254212
 40
0.20000000298023224
 50
0.0
 1
(d)
100
AcDbText
 0
TEXT
  5
3f65
330
1F
100
AcDbEntity
  8
Positions
 62
7
  7
Standard
100
AcDbText
 10
388283.7231498114
 20
683689.9535050457
 30
189.400520254212
 40
0.20000000298023224
 50
0.0
 1
 E: 388283.7231m N: 683690.4535m
100
AcDbText
 0
TEXT
  5
3f66
330
1F
100
AcDbEntity
  8
Heights
 62
24
  7
Standard
100
AcDbText
 10
388283.7231498114
 20
683689.4535050428
 30
189.400520254212
 40
0.20000000298023224
 50
0.0
 1
 H: 189.4005m
100
AcDbText
 0
POINT
  5
3f67
330
1F
100
AcDbEntity
8
Survey.td2
100
AcDbPoint
10
388281.1194464926
20
683690.5882667791
30
189.33452231941703
 0
TEXT
  5
3f68
330
1F
100
AcDbEntity
  8
Survey.td2_Mark
  7
Standard
100
AcDbText
 10
388281.1194464926
 20
683690.5882667791
 30
189.33452231941703
 40
0.20000000298023224
 50
0.0
 1
 12
100
AcDbText
 0
TEXT
  5
3f69
330
1F
100
AcDbEntity
  8
Survey.td2_point_desc_Mark
  7
Standard
100
AcDbText
 10
388281.1194464926
 20
683690.8882667836
 30
189.33452231941703
 40
0.20000000298023224
 50
0.0
 1
(d)
100
AcDbText
 0
TEXT
  5
3f6a
330
1F
100
AcDbEntity
  8
Positions
 62
7
  7
Standard
100
AcDbText
 10
388281.1194464926
 20
683690.0882667761
 30
189.33452231941703
 40
0.20000000298023224
 50
0.0
 1
 E: 388281.1194m N: 683690.5883m
100
AcDbText
 0
TEXT
  5
3f6b
330
1F
100
AcDbEntity
  8
Heights
 62
24
  7
Standard
100
AcDbText
 10
388281.1194464926
 20
683689.5882667731
 30
189.33452231941703
 40
0.20000000298023224
 50
0.0
 1
 H: 189.3345m
100
AcDbText
 0
POINT
  5
3f6c
330
1F
100
AcDbEntity
8
Survey.td2
100
AcDbPoint
10
388284.18706149154
20
683689.8429165134
30
189.5535080418181
 0
TEXT
  5
3f6d
330
1F
100
AcDbEntity
  8
Survey.td2_Mark
  7
Standard
100
AcDbText
 10
388284.18706149154
 20
683689.8429165134
 30
189.5535080418181
 40
0.20000000298023224
 50
0.0
 1
 13
100
AcDbText
 0
TEXT
  5
3f6e
330
1F
100
AcDbEntity
  8
Survey.td2_point_desc_Mark
  7
Standard
100
AcDbText
 10
388284.18706149154
 20
683690.1429165179
 30
189.5535080418181
 40
0.20000000298023224
 50
0.0
 1
(c)
100
AcDbText
 0
TEXT
  5
3f6f
330
1F
100
AcDbEntity
  8
Positions
 62
7
  7
Standard
100
AcDbText
 10
388284.18706149154
 20
683689.3429165104
 30
189.5535080418181
 40
0.20000000298023224
 50
0.0
 1
 E: 388284.1871m N: 683689.8429m
100
AcDbText
 0
TEXT
  5
3f70
330
1F
100
AcDbEntity
  8
Heights
 62
24
  7
Standard
100
AcDbText
 10
388284.18706149154
 20
683688.8429165075
 30
189.5535080418181
 40
0.20000000298023224
 50
0.0
 1
 H: 189.5535m
100
AcDbText
 0
POINT
  5
3f71
330
1F
100
AcDbEntity
8
Survey.td2
100
AcDbPoint
10
388287.6271183848
20
683690.8670162741
30
189.12952956270644
 0
TEXT
  5
3f72
330
1F
100
AcDbEntity
  8
Survey.td2_Mark
  7
Standard
100
AcDbText
 10
388287.6271183848
 20
683690.8670162741
 30
189.12952956270644
 40
0.20000000298023224
 50
0.0
 1
 14
100
AcDbText
 0
TEXT
  5
3f73
330
1F
100
AcDbEntity
  8
Survey.td2_point_desc_Mark
  7
Standard
100
AcDbText
 10
388287.6271183848
 20
683691.1670162786
 30
189.12952956270644
 40
0.20000000298023224
 50
0.0
 1
(s)
100
AcDbText
 0
TEXT
  5
3f74
330
1F
100
AcDbEntity
  8
Positions
 62
7
  7
Standard
100
AcDbText
 10
388287.6271183848
 20
683690.3670162711
 30
189.12952956270644
 40
0.20000000298023224
 50
0.0
 1
 E: 388287.6271m N: 683690.867m
100
AcDbText
 0
TEXT
  5
3f75
330
1F
100
AcDbEntity
  8
Heights
 62
24
  7
Standard
100
AcDbText
 10
388287.6271183848
 20
683689.8670162682
 30
189.12952956270644
 40
0.20000000298023224
 50
0.0
 1
 H: 189.1295m
100
AcDbText
 0
POINT
  5
3f76
330
1F
100
AcDbEntity
8
Survey.td2
100
AcDbPoint
10
388286.8107988561
20
683713.3013465968
30
189.26398253709945
 0
TEXT
  5
3f77
330
1F
100
AcDbEntity
  8
Survey.td2_Mark
  7
Standard
100
AcDbText
 10
388286.8107988561
 20
683713.3013465968
 30
189.26398253709945
 40
0.20000000298023224
 50
0.0
 1
 15
100
AcDbText
 0
TEXT
  5
3f78
330
1F
100
AcDbEntity
  8
Survey.td2_point_desc_Mark
  7
Standard
100
AcDbText
 10
388286.8107988561
 20
683713.6013466013
 30
189.26398253709945
 40
0.20000000298023224
 50
0.0
 1
(d)
100
AcDbText
 0
TEXT
  5
3f79
330
1F
100
AcDbEntity
  8
Positions
 62
7
  7
Standard
100
AcDbText
 10
388286.8107988561
 20
683712.8013465938
 30
189.26398253709945
 40
0.20000000298023224
 50
0.0
 1
 E: 388286.8108m N: 683713.3013m
100
AcDbText
 0
TEXT
  5
3f7a
330
1F
100
AcDbEntity
  8
Heights
 62
24
  7
Standard
100
AcDbText
 10
388286.8107988561
 20
683712.3013465909
 30
189.26398253709945
 40
0.20000000298023224
 50
0.0
 1
 H: 189.264m
100
AcDbText
 0
POINT
  5
3f7b
330
1F
100
AcDbEntity
8
Survey.td2
100
AcDbPoint
10
388283.45562915853
20
683713.9971734853
30
189.27999576146252
 0
TEXT
  5
3f7c
330
1F
100
AcDbEntity
  8
Survey.td2_Mark
  7
Standard
100
AcDbText
 10
388283.45562915853
 20
683713.9971734853
 30
189.27999576146252
 40
0.20000000298023224
 50
0.0
 1
 16
100
AcDbText
 0
TEXT
  5
3f7d
330
1F
100
AcDbEntity
  8
Survey.td2_point_desc_Mark
  7
Standard
100
AcDbText
 10
388283.45562915853
 20
683714.2971734898
 30
189.27999576146252
 40
0.20000000298023224
 50
0.0
 1
(d)
100
AcDbText
 0
TEXT
  5
3f7e
330
1F
100
AcDbEntity
  8
Positions
 62
7
  7
Standard
100
AcDbText
 10
388283.45562915853
 20
683713.4971734823
 30
189.27999576146252
 40
0.20000000298023224
 50
0.0
 1
 E: 388283.4556m N: 683713.9972m
100
AcDbText
 0
TEXT
  5
3f7f
330
1F
100
AcDbEntity
  8
Heights
 62
24
  7
Standard
100
AcDbText
 10
388283.45562915853
 20
683712.9971734794
 30
189.27999576146252
 40
0.20000000298023224
 50
0.0
 1
 H: 189.28m
100
AcDbText
 0
POINT
  5
3f80
330
1F
100
AcDbEntity
8
Survey.td2
100
AcDbPoint
10
388282.2361334598
20
683713.4137872504
30
189.2359836623187
 0
TEXT
  5
3f81
330
1F
100
AcDbEntity
  8
Survey.td2_Mark
  7
Standard
100
AcDbText
 10
388282.2361334598
 20
683713.4137872504
 30
189.2359836623187
 40
0.20000000298023224
 50
0.0
 1
 17
100
AcDbText
 0
TEXT
  5
3f82
330
1F
100
AcDbEntity
  8
Survey.td2_point_desc_Mark
  7
Standard
100
AcDbText
 10
388282.2361334598
 20
683713.7137872549
 30
189.2359836623187
 40
0.20000000298023224
 50
0.0
 1
(stb)
100
AcDbText
 0
TEXT
  5
3f83
330
1F
100
AcDbEntity
  8
Positions
 62
7
  7
Standard
100
AcDbText
 10
388282.2361334598
 20
683712.9137872474
 30
189.2359836623187
 40
0.20000000298023224
 50
0.0
 1
 E: 388282.2361m N: 683713.4138m
100
AcDbText
 0
TEXT
  5
3f84
330
1F
100
AcDbEntity
  8
Heights
 62
24
  7
Standard
100
AcDbText
 10
388282.2361334598
 20
683712.4137872445
 30
189.2359836623187
 40
0.20000000298023224
 50
0.0
 1
 H: 189.236m
100
AcDbText
 0
POINT
  5
3f85
330
1F
100
AcDbEntity
8
Survey.td2
100
AcDbPoint
10
388281.73099897295
20
683712.3195250483
30
189.31496142050008
 0
TEXT
  5
3f86
330
1F
100
AcDbEntity
  8
Survey.td2_Mark
  7
Standard
100
AcDbText
 10
388281.73099897295
 20
683712.3195250483
 30
189.31496142050008
 40
0.20000000298023224
 50
0.0
 1
 18
100
AcDbText
 0
TEXT
  5
3f87
330
1F
100
AcDbEntity
  8
Survey.td2_point_desc_Mark
  7
Standard
100
AcDbText
 10
388281.73099897295
 20
683712.6195250527
 30
189.31496142050008
 40
0.20000000298023224
 50
0.0
 1
(ce)
100
AcDbText
 0
TEXT
  5
3f88
330
1F
100
AcDbEntity
  8
Positions
 62
7
  7
Standard
100
AcDbText
 10
388281.73099897295
 20
683711.8195250452
 30
189.31496142050008
 40
0.20000000298023224
 50
0.0
 1
 E: 388281.731m N: 683712.3195m
100
AcDbText
 0
TEXT
  5
3f89
330
1F
100
AcDbEntity
  8
Heights
 62
24
  7
Standard
100
AcDbText
 10
388281.73099897295
 20
683711.3195250423
 30
189.31496142050008
 40
0.20000000298023224
 50
0.0
 1
 H: 189.315m
100
AcDbText
 0
POINT
  5
3f8a
330
1F
100
AcDbEntity
8
Survey.td2
100
AcDbPoint
10
388281.41024661314
20
683710.545872096
30
189.24992549861528
 0
TEXT
  5
3f8b
330
1F
100
AcDbEntity
  8
Survey.td2_Mark
  7
Standard
100
AcDbText
 10
388281.41024661314
 20
683710.545872096
 30
189.24992549861528
 40
0.20000000298023224
 50
0.0
 1
 19
100
AcDbText
 0
TEXT
  5
3f8c
330
1F
100
AcDbEntity
  8
Survey.td2_point_desc_Mark
  7
Standard
100
AcDbText
 10
388281.41024661314
 20
683710.8458721004
 30
189.24992549861528
 40
0.20000000298023224
 50
0.0
 1
(gb)
100
AcDbText
 0
TEXT
  5
3f8d
330
1F
100
AcDbEntity
  8
Positions
 62
7
  7
Standard
100
AcDbText
 10
388281.41024661314
 20
683710.045872093
 30
189.24992549861528
 40
0.20000000298023224
 50
0.0
 1
 E: 388281.4102m N: 683710.5459m
100
AcDbText
 0
TEXT
  5
3f8e
330
1F
100
AcDbEntity
  8
Heights
 62
24
  7
Standard
100
AcDbText
 10
388281.41024661314
 20
683709.54587209
 30
189.24992549861528
 40
0.20000000298023224
 50
0.0
 1
 H: 189.2499m
100
AcDbText
 0
POINT
  5
3f8f
330
1F
100
AcDbEntity
8
Survey.td2
100
AcDbPoint
10
388287.37142802565
20
683686.0169690001
30
189.50243158210736
 0
TEXT
  5
3f90
330
1F
100
AcDbEntity
  8
Survey.td2_Mark
  7
Standard
100
AcDbText
 10
388287.37142802565
 20
683686.0169690001
 30
189.50243158210736
 40
0.20000000298023224
 50
0.0
 1
 20
100
AcDbText
 0
TEXT
  5
3f91
330
1F
100
AcDbEntity
  8
Survey.td2_point_desc_Mark
  7
Standard
100
AcDbText
 10
388287.37142802565
 20
683686.3169690046
 30
189.50243158210736
 40
0.20000000298023224
 50
0.0
 1
(s)
100
AcDbText
 0
TEXT
  5
3f92
330
1F
100
AcDbEntity
  8
Positions
 62
7
  7
Standard
100
AcDbText
 10
388287.37142802565
 20
683685.5169689971
 30
189.50243158210736
 40
0.20000000298023224
 50
0.0
 1
 E: 388287.3714m N: 683686.017m
100
AcDbText
 0
TEXT
  5
3f93
330
1F
100
AcDbEntity
  8
Heights
 62
24
  7
Standard
100
AcDbText
 10
388287.37142802565
 20
683685.0169689942
 30
189.50243158210736
 40
0.20000000298023224
 50
0.0
 1
 H: 189.5024m
100
AcDbText
 0
POINT
  5
3f94
330
1F
100
AcDbEntity
8
Survey.td2
100
AcDbPoint
10
388287.8806927074
20
683684.8231318202
30
189.44740760524473
 0
TEXT
  5
3f95
330
1F
100
AcDbEntity
  8
Survey.td2_Mark
  7
Standard
100
AcDbText
 10
388287.8806927074
 20
683684.8231318202
 30
189.44740760524473
 40
0.20000000298023224
 50
0.0
 1
 21
100
AcDbText
 0
TEXT
  5
3f96
330
1F
100
AcDbEntity
  8
Survey.td2_point_desc_Mark
  7
Standard
100
AcDbText
 10
388287.8806927074
 20
683685.1231318247
 30
189.44740760524473
 40
0.20000000298023224
 50
0.0
 1
(ca)
100
AcDbText
 0
TEXT
  5
3f97
330
1F
100
AcDbEntity
  8
Positions
 62
7
  7
Standard
100
AcDbText
 10
388287.8806927074
 20
683684.3231318172
 30
189.44740760524473
 40
0.20000000298023224
 50
0.0
 1
 E: 388287.8807m N: 683684.8231m
100
AcDbText
 0
TEXT
  5
3f98
330
1F
100
AcDbEntity
  8
Heights
 62
24
  7
Standard
100
AcDbText
 10
388287.8806927074
 20
683683.8231318142
 30
189.44740760524473
 40
0.20000000298023224
 50
0.0
 1
 H: 189.4474m
100
AcDbText
 0
POINT
  5
3f99
330
1F
100
AcDbEntity
8
Survey.td2
100
AcDbPoint
10
388274.72520305455
20
683678.9188101052
30
189.27728511058874
 0
TEXT
  5
3f9a
330
1F
100
AcDbEntity
  8
Survey.td2_Mark
  7
Standard
100
AcDbText
 10
388274.72520305455
 20
683678.9188101052
 30
189.27728511058874
 40
0.20000000298023224
 50
0.0
 1
 22
100
AcDbText
 0
TEXT
  5
3f9b
330
1F
100
AcDbEntity
  8
Survey.td2_point_desc_Mark
  7
Standard
100
AcDbText
 10
388274.72520305455
 20
683679.2188101097
 30
189.27728511058874
 40
0.20000000298023224
 50
0.0
 1
(s)
100
AcDbText
 0
TEXT
  5
3f9c
330
1F
100
AcDbEntity
  8
Positions
 62
7
  7
Standard
100
AcDbText
 10
388274.72520305455
 20
683678.4188101022
 30
189.27728511058874
 40
0.20000000298023224
 50
0.0
 1
 E: 388274.7252m N: 683678.9188m
100
AcDbText
 0
TEXT
  5
3f9d
330
1F
100
AcDbEntity
  8
Heights
 62
24
  7
Standard
100
AcDbText
 10
388274.72520305455
 20
683677.9188100992
 30
189.27728511058874
 40
0.20000000298023224
 50
0.0
 1
 H: 189.2773m
100
AcDbText
 0
POINT
  5
3f9e
330
1F
100
AcDbEntity
8
Survey.td2
100
AcDbPoint
10
388263.4910237393
20
683675.6707383394
30
189.15421647891435
 0
TEXT
  5
3f9f
330
1F
100
AcDbEntity
  8
Survey.td2_Mark
  7
Standard
100
AcDbText
 10
388263.4910237393
 20
683675.6707383394
 30
189.15421647891435
 40
0.20000000298023224
 50
0.0
 1
 23
100
AcDbText
 0
TEXT
  5
3fa0
330
1F
100
AcDbEntity
  8
Survey.td2_point_desc_Mark
  7
Standard
100
AcDbText
 10
388263.4910237393
 20
683675.9707383439
 30
189.15421647891435
 40
0.20000000298023224
 50
0.0
 1
(s)
100
AcDbText
 0
TEXT
  5
3fa1
330
1F
100
AcDbEntity
  8
Positions
 62
7
  7
Standard
100
AcDbText
 10
388263.4910237393
 20
683675.1707383364
 30
189.15421647891435
 40
0.20000000298023224
 50
0.0
 1
 E: 388263.491m N: 683675.6707m
100
AcDbText
 0
TEXT
  5
3fa2
330
1F
100
AcDbEntity
  8
Heights
 62
24
  7
Standard
100
AcDbText
 10
388263.4910237393
 20
683674.6707383335
 30
189.15421647891435
 40
0.20000000298023224
 50
0.0
 1
 H: 189.1542m
100
AcDbText
 0
POINT
  5
3fa3
330
1F
100
AcDbEntity
8
Survey.td2
100
AcDbPoint
10
388260.03435234
20
683677.2463308263
30
188.4672472700732
 0
TEXT
  5
3fa4
330
1F
100
AcDbEntity
  8
Survey.td2_Mark
  7
Standard
100
AcDbText
 10
388260.03435234
 20
683677.2463308263
 30
188.4672472700732
 40
0.20000000298023224
 50
0.0
 1
 24
100
AcDbText
 0
TEXT
  5
3fa5
330
1F
100
AcDbEntity
  8
Survey.td2_point_desc_Mark
  7
Standard
100
AcDbText
 10
388260.03435234
 20
683677.5463308308
 30
188.4672472700732
 40
0.20000000298023224
 50
0.0
 1
(lp)
100
AcDbText
 0
TEXT
  5
3fa6
330
1F
100
AcDbEntity
  8
Positions
 62
7
  7
Standard
100
AcDbText
 10
388260.03435234
 20
683676.7463308233
 30
188.4672472700732
 40
0.20000000298023224
 50
0.0
 1
 E: 388260.0344m N: 683677.2463m
100
AcDbText
 0
TEXT
  5
3fa7
330
1F
100
AcDbEntity
  8
Heights
 62
24
  7
Standard
100
AcDbText
 10
388260.03435234
 20
683676.2463308204
 30
188.4672472700732
 40
0.20000000298023224
 50
0.0
 1
 H: 188.4672m
100
AcDbText
 0
POINT
  5
3fa8
330
1F
100
AcDbEntity
8
Survey.td2
100
AcDbPoint
10
388260.074260407
20
683676.428186574
30
188.13623077432456
 0
TEXT
  5
3fa9
330
1F
100
AcDbEntity
  8
Survey.td2_Mark
  7
Standard
100
AcDbText
 10
388260.074260407
 20
683676.428186574
 30
188.13623077432456
 40
0.20000000298023224
 50
0.0
 1
 25
100
AcDbText
 0
TEXT
  5
3faa
330
1F
100
AcDbEntity
  8
Survey.td2_point_desc_Mark
  7
Standard
100
AcDbText
 10
388260.074260407
 20
683676.7281865785
 30
188.13623077432456
 40
0.20000000298023224
 50
0.0
 1
(s)
100
AcDbText
 0
TEXT
  5
3fab
330
1F
100
AcDbEntity
  8
Positions
 62
7
  7
Standard
100
AcDbText
 10
388260.074260407
 20
683675.928186571
 30
188.13623077432456
 40
0.20000000298023224
 50
0.0
 1
 E: 388260.0743m N: 683676.4282m
100
AcDbText
 0
TEXT
  5
3fac
330
1F
100
AcDbEntity
  8
Heights
 62
24
  7
Standard
100
AcDbText
 10
388260.074260407
 20
683675.4281865681
 30
188.13623077432456
 40
0.20000000298023224
 50
0.0
 1
 H: 188.1362m
100
AcDbText
 0
POINT
  5
3fad
330
1F
100
AcDbEntity
8
Survey.td2
100
AcDbPoint
10
388277.1253118131
20
683681.2136191512
30
188.38033205301466
 0
TEXT
  5
3fae
330
1F
100
AcDbEntity
  8
Survey.td2_Mark
  7
Standard
100
AcDbText
 10
388277.1253118131
 20
683681.2136191512
 30
188.38033205301466
 40
0.20000000298023224
 50
0.0
 1
 26
100
AcDbText
 0
TEXT
  5
3faf
330
1F
100
AcDbEntity
  8
Survey.td2_point_desc_Mark
  7
Standard
100
AcDbText
 10
388277.1253118131
 20
683681.5136191556
 30
188.38033205301466
 40
0.20000000298023224
 50
0.0
 1
(s)
100
AcDbText
 0
TEXT
  5
3fb0
330
1F
100
AcDbEntity
  8
Positions
 62
7
  7
Standard
100
AcDbText
 10
388277.1253118131
 20
683680.7136191481
 30
188.38033205301466
 40
0.20000000298023224
 50
0.0
 1
 E: 388277.1253m N: 683681.2136m
100
AcDbText
 0
TEXT
  5
3fb1
330
1F
100
AcDbEntity
  8
Heights
 62
24
  7
Standard
100
AcDbText
 10
388277.1253118131
 20
683680.2136191452
 30
188.38033205301466
 40
0.20000000298023224
 50
0.0
 1
 H: 188.3803m
100
AcDbText
 0
POINT
  5
3fb2
330
1F
100
AcDbEntity
8
Survey.td2
100
AcDbPoint
10
388276.9370015522
20
683682.0565768152
30
188.53434901692265
 0
TEXT
  5
3fb3
330
1F
100
AcDbEntity
  8
Survey.td2_Mark
  7
Standard
100
AcDbText
 10
388276.9370015522
 20
683682.0565768152
 30
188.53434901692265
 40
0.20000000298023224
 50
0.0
 1
 27
100
AcDbText
 0
TEXT
  5
3fb4
330
1F
100
AcDbEntity
  8
Survey.td2_point_desc_Mark
  7
Standard
100
AcDbText
 10
388276.9370015522
 20
683682.3565768197
 30
188.53434901692265
 40
0.20000000298023224
 50
0.0
 1
(l)
100
AcDbText
 0
TEXT
  5
3fb5
330
1F
100
AcDbEntity
  8
Positions
 62
7
  7
Standard
100
AcDbText
 10
388276.9370015522
 20
683681.5565768122
 30
188.53434901692265
 40
0.20000000298023224
 50
0.0
 1
 E: 388276.937m N: 683682.0566m
100
AcDbText
 0
TEXT
  5
3fb6
330
1F
100
AcDbEntity
  8
Heights
 62
24
  7
Standard
100
AcDbText
 10
388276.9370015522
 20
683681.0565768093
 30
188.53434901692265
 40
0.20000000298023224
 50
0.0
 1
 H: 188.5343m
100
AcDbText
 0
POINT
  5
3fb7
330
1F
100
AcDbEntity
8
Survey.td2
100
AcDbPoint
10
388264.5287459111
20
683662.7374303911
30
190.0219558939814
 0
TEXT
  5
3fb8
330
1F
100
AcDbEntity
  8
Survey.td2_Mark
  7
Standard
100
AcDbText
 10
388264.5287459111
 20
683662.7374303911
 30
190.0219558939814
 40
0.20000000298023224
 50
0.0
 1
 28
100
AcDbText
 0
TEXT
  5
3fb9
330
1F
100
AcDbEntity
  8
Survey.td2_point_desc_Mark
  7
Standard
100
AcDbText
 10
388264.5287459111
 20
683663.0374303956
 30
190.0219558939814
 40
0.20000000298023224
 50
0.0
 1
(ax)
100
AcDbText
 0
TEXT
  5
3fba
330
1F
100
AcDbEntity
  8
Positions
 62
7
  7
Standard
100
AcDbText
 10
388264.5287459111
 20
683662.2374303881
 30
190.0219558939814
 40
0.20000000298023224
 50
0.0
 1
 E: 388264.5287m N: 683662.7374m
100
AcDbText
 0
TEXT
  5
3fbb
330
1F
100
AcDbEntity
  8
Heights
 62
24
  7
Standard
100
AcDbText
 10
388264.5287459111
 20
683661.7374303852
 30
190.0219558939814
 40
0.20000000298023224
 50
0.0
 1
 H: 190.022m
100
AcDbText
 0
POINT
  5
3fbc
330
1F
100
AcDbEntity
8
Survey.td2
100
AcDbPoint
10
388249.2806990679
20
683671.59324604
30
189.09012997453067
 0
TEXT
  5
3fbd
330
1F
100
AcDbEntity
  8
Survey.td2_Mark
  7
Standard
100
AcDbText
 10
388249.2806990679
 20
683671.59324604
 30
189.09012997453067
 40
0.20000000298023224
 50
0.0
 1
 29
100
AcDbText
 0
TEXT
  5
3fbe
330
1F
100
AcDbEntity
  8
Survey.td2_point_desc_Mark
  7
Standard
100
AcDbText
 10
388249.2806990679
 20
683671.8932460445
 30
189.09012997453067
 40
0.20000000298023224
 50
0.0
 1
(stb)
100
AcDbText
 0
TEXT
  5
3fbf
330
1F
100
AcDbEntity
  8
Positions
 62
7
  7
Standard
100
AcDbText
 10
388249.2806990679
 20
683671.093246037
 30
189.09012997453067
 40
0.20000000298023224
 50
0.0
 1
 E: 388249.2807m N: 683671.5932m
100
AcDbText
 0
TEXT
  5
3fc0
330
1F
100
AcDbEntity
  8
Heights
 62
24
  7
Standard
100
AcDbText
 10
388249.2806990679
 20
683670.5932460341
 30
189.09012997453067
 40
0.20000000298023224
 50
0.0
 1
 H: 189.0901m
100
AcDbText
 0
POINT
  5
3fc1
330
1F
100
AcDbEntity
8
Survey.td2
100
AcDbPoint
10
388240.90340999037
20
683669.2627898707
30
188.6920802897236
 0
TEXT
  5
3fc2
330
1F
100
AcDbEntity
  8
Survey.td2_Mark
  7
Standard
100
AcDbText
 10
388240.90340999037
 20
683669.2627898707
 30
188.6920802897236
 40
0.20000000298023224
 50
0.0
 1
 30
100
AcDbText
 0
TEXT
  5
3fc3
330
1F
100
AcDbEntity
  8
Survey.td2_point_desc_Mark
  7
Standard
100
AcDbText
 10
388240.90340999037
 20
683669.5627898752
 30
188.6920802897236
 40
0.20000000298023224
 50
0.0
 1
(s)
100
AcDbText
 0
TEXT
  5
3fc4
330
1F
100
AcDbEntity
  8
Positions
 62
7
  7
Standard
100
AcDbText
 10
388240.90340999037
 20
683668.7627898677
 30
188.6920802897236
 40
0.20000000298023224
 50
0.0
 1
 E: 388240.9034m N: 683669.2628m
100
AcDbText
 0
TEXT
  5
3fc5
330
1F
100
AcDbEntity
  8
Heights
 62
24
  7
Standard
100
AcDbText
 10
388240.90340999037
 20
683668.2627898648
 30
188.6920802897236
 40
0.20000000298023224
 50
0.0
 1
 H: 188.6921m
100
AcDbText
 0
POINT
  5
3fc6
330
1F
100
AcDbEntity
8
Survey.td2
100
AcDbPoint
10
388221.44064193405
20
683664.1895808766
30
188.52597125102216
 0
TEXT
  5
3fc7
330
1F
100
AcDbEntity
  8
Survey.td2_Mark
  7
Standard
100
AcDbText
 10
388221.44064193405
 20
683664.1895808766
 30
188.52597125102216
 40
0.20000000298023224
 50
0.0
 1
 31
100
AcDbText
 0
TEXT
  5
3fc8
330
1F
100
AcDbEntity
  8
Survey.td2_point_desc_Mark
  7
Standard
100
AcDbText
 10
388221.44064193405
 20
683664.4895808811
 30
188.52597125102216
 40
0.20000000298023224
 50
0.0
 1
(s)
100
AcDbText
 0
TEXT
  5
3fc9
330
1F
100
AcDbEntity
  8
Positions
 62
7
  7
Standard
100
AcDbText
 10
388221.44064193405
 20
683663.6895808736
 30
188.52597125102216
 40
0.20000000298023224
 50
0.0
 1
 E: 388221.4406m N: 683664.1896m
100
AcDbText
 0
TEXT
  5
3fca
330
1F
100
AcDbEntity
  8
Heights
 62
24
  7
Standard
100
AcDbText
 10
388221.44064193405
 20
683663.1895808707
 30
188.52597125102216
 40
0.20000000298023224
 50
0.0
 1
 H: 188.526m
100
AcDbText
 0
POINT
  5
3fcb
330
1F
100
AcDbEntity
8
Survey.td2
100
AcDbPoint
10
388221.4726801066
20
683664.2449102094
30
188.40697237825523
 0
TEXT
  5
3fcc
330
1F
100
AcDbEntity
  8
Survey.td2_Mark
  7
Standard
100
AcDbText
 10
388221.4726801066
 20
683664.2449102094
 30
188.40697237825523
 40
0.20000000298023224
 50
0.0
 1
 32
100
AcDbText
 0
TEXT
  5
3fcd
330
1F
100
AcDbEntity
  8
Survey.td2_point_desc_Mark
  7
Standard
100
AcDbText
 10
388221.4726801066
 20
683664.5449102139
 30
188.40697237825523
 40
0.20000000298023224
 50
0.0
 1
(sl)
100
AcDbText
 0
TEXT
  5
3fce
330
1F
100
AcDbEntity
  8
Positions
 62
7
  7
Standard
100
AcDbText
 10
388221.4726801066
 20
683663.7449102064
 30
188.40697237825523
 40
0.20000000298023224
 50
0.0
 1
 E: 388221.4727m N: 683664.2449m
100
AcDbText
 0
TEXT
  5
3fcf
330
1F
100
AcDbEntity
  8
Heights
 62
24
  7
Standard
100
AcDbText
 10
388221.4726801066
 20
683663.2449102035
 30
188.40697237825523
 40
0.20000000298023224
 50
0.0
 1
 H: 188.407m
100
AcDbText
 0
POINT
  5
3fd0
330
1F
100
AcDbEntity
8
Survey.td2
100
AcDbPoint
10
388222.9813015476
20
683665.1770496493
30
187.94999172031618
 0
TEXT
  5
3fd1
330
1F
100
AcDbEntity
  8
Survey.td2_Mark
  7
Standard
100
AcDbText
 10
388222.9813015476
 20
683665.1770496493
 30
187.94999172031618
 40
0.20000000298023224
 50
0.0
 1
 33
100
AcDbText
 0
TEXT
  5
3fd2
330
1F
100
AcDbEntity
  8
Survey.td2_point_desc_Mark
  7
Standard
100
AcDbText
 10
388222.9813015476
 20
683665.4770496538
 30
187.94999172031618
 40
0.20000000298023224
 50
0.0
 1
(s)
100
AcDbText
 0
TEXT
  5
3fd3
330
1F
100
AcDbEntity
  8
Positions
 62
7
  7
Standard
100
AcDbText
 10
388222.9813015476
 20
683664.6770496463
 30
187.94999172031618
 40
0.20000000298023224
 50
0.0
 1
 E: 388222.9813m N: 683665.177m
100
AcDbText
 0
TEXT
  5
3fd4
330
1F
100
AcDbEntity
  8
Heights
 62
24
  7
Standard
100
AcDbText
 10
388222.9813015476
 20
683664.1770496434
 30
187.94999172031618
 40
0.20000000298023224
 50
0.0
 1
 H: 187.95m
100
AcDbText
 0
POINT
  5
3fd5
330
1F
100
AcDbEntity
8
Survey.td2
100
AcDbPoint
10
388229.6074186547
20
683669.015921479
30
188.95507148659527
 0
TEXT
  5
3fd6
330
1F
100
AcDbEntity
  8
Survey.td2_Mark
  7
Standard
100
AcDbText
 10
388229.6074186547
 20
683669.015921479
 30
188.95507148659527
 40
0.20000000298023224
 50
0.0
 1
 34
100
AcDbText
 0
TEXT
  5
3fd7
330
1F
100
AcDbEntity
  8
Survey.td2_point_desc_Mark
  7
Standard
100
AcDbText
 10
388229.6074186547
 20
683669.3159214834
 30
188.95507148659527
 40
0.20000000298023224
 50
0.0
 1
(l)
100
AcDbText
 0
TEXT
  5
3fd8
330
1F
100
AcDbEntity
  8
Positions
 62
7
  7
Standard
100
AcDbText
 10
388229.6074186547
 20
683668.515921476
 30
188.95507148659527
 40
0.20000000298023224
 50
0.0
 1
 E: 388229.6074m N: 683669.0159m
100
AcDbText
 0
TEXT
  5
3fd9
330
1F
100
AcDbEntity
  8
Heights
 62
24
  7
Standard
100
AcDbText
 10
388229.6074186547
 20
683668.015921473
 30
188.95507148659527
 40
0.20000000298023224
 50
0.0
 1
 H: 188.9551m
100
AcDbText
 0
POINT
  5
3fda
330
1F
100
AcDbEntity
8
Survey.td2
100
AcDbPoint
10
388232.12117508124
20
683653.0835047163
30
189.81575114742708
 0
TEXT
  5
3fdb
330
1F
100
AcDbEntity
  8
Survey.td2_Mark
  7
Standard
100
AcDbText
 10
388232.12117508124
 20
683653.0835047163
 30
189.81575114742708
 40
0.20000000298023224
 50
0.0
 1
 35
100
AcDbText
 0
TEXT
  5
3fdc
330
1F
100
AcDbEntity
  8
Survey.td2_point_desc_Mark
  7
Standard
100
AcDbText
 10
388232.12117508124
 20
683653.3835047208
 30
189.81575114742708
 40
0.20000000298023224
 50
0.0
 1
(ax)
100
AcDbText
 0
TEXT
  5
3fdd
330
1F
100
AcDbEntity
  8
Positions
 62
7
  7
Standard
100
AcDbText
 10
388232.12117508124
 20
683652.5835047133
 30
189.81575114742708
 40
0.20000000298023224
 50
0.0
 1
 E: 388232.1212m N: 683653.0835m
100
AcDbText
 0
TEXT
  5
3fde
330
1F
100
AcDbEntity
  8
Heights
 62
24
  7
Standard
100
AcDbText
 10
388232.12117508124
 20
683652.0835047103
 30
189.81575114742708
 40
0.20000000298023224
 50
0.0
 1
 H: 189.8158m
100
AcDbText
 0
POINT
  5
3fdf
330
1F
100
AcDbEntity
8
Survey.td2
100
AcDbPoint
10
388165.2547584599
20
683633.0106361799
30
189.29631964985958
 0
TEXT
  5
3fe0
330
1F
100
AcDbEntity
  8
Survey.td2_Mark
  7
Standard
100
AcDbText
 10
388165.2547584599
 20
683633.0106361799
 30
189.29631964985958
 40
0.20000000298023224
 50
0.0
 1
 36
100
AcDbText
 0
TEXT
  5
3fe1
330
1F
100
AcDbEntity
  8
Survey.td2_point_desc_Mark
  7
Standard
100
AcDbText
 10
388165.2547584599
 20
683633.3106361844
 30
189.29631964985958
 40
0.20000000298023224
 50
0.0
 1
(ax)
100
AcDbText
 0
TEXT
  5
3fe2
330
1F
100
AcDbEntity
  8
Positions
 62
7
  7
Standard
100
AcDbText
 10
388165.2547584599
 20
683632.5106361769
 30
189.29631964985958
 40
0.20000000298023224
 50
0.0
 1
 E: 388165.2548m N: 683633.0106m
100
AcDbText
 0
TEXT
  5
3fe3
330
1F
100
AcDbEntity
  8
Heights
 62
24
  7
Standard
100
AcDbText
 10
388165.2547584599
 20
683632.010636174
 30
189.29631964985958
 40
0.20000000298023224
 50
0.0
 1
 H: 189.2963m
100
AcDbText
 0
POINT
  5
3fe4
330
1F
100
AcDbEntity
8
Survey.td2
100
AcDbPoint
10
388091.6947359974
20
683610.9781494173
30
188.84783642840168
 0
TEXT
  5
3fe5
330
1F
100
AcDbEntity
  8
Survey.td2_Mark
  7
Standard
100
AcDbText
 10
388091.6947359974
 20
683610.9781494173
 30
188.84783642840168
 40
0.20000000298023224
 50
0.0
 1
 37
100
AcDbText
 0
TEXT
  5
3fe6
330
1F
100
AcDbEntity
  8
Survey.td2_point_desc_Mark
  7
Standard
100
AcDbText
 10
388091.6947359974
 20
683611.2781494218
 30
188.84783642840168
 40
0.20000000298023224
 50
0.0
 1
(ax)
100
AcDbText
 0
TEXT
  5
3fe7
330
1F
100
AcDbEntity
  8
Positions
 62
7
  7
Standard
100
AcDbText
 10
388091.6947359974
 20
683610.4781494143
 30
188.84783642840168
 40
0.20000000298023224
 50
0.0
 1
 E: 388091.6947m N: 683610.9781m
100
AcDbText
 0
TEXT
  5
3fe8
330
1F
100
AcDbEntity
  8
Heights
 62
24
  7
Standard
100
AcDbText
 10
388091.6947359974
 20
683609.9781494114
 30
188.84783642840168
 40
0.20000000298023224
 50
0.0
 1
 H: 188.8478m
100
AcDbText
 0
POINT
  5
3fe9
330
1F
100
AcDbEntity
8
Survey.td2
100
AcDbPoint
10
388092.57966817083
20
683607.7572946955
30
188.6627722168634
 0
TEXT
  5
3fea
330
1F
100
AcDbEntity
  8
Survey.td2_Mark
  7
Standard
100
AcDbText
 10
388092.57966817083
 20
683607.7572946955
 30
188.6627722168634
 40
0.20000000298023224
 50
0.0
 1
 38
100
AcDbText
 0
TEXT
  5
3feb
330
1F
100
AcDbEntity
  8
Survey.td2_point_desc_Mark
  7
Standard
100
AcDbText
 10
388092.57966817083
 20
683608.0572947
 30
188.6627722168634
 40
0.20000000298023224
 50
0.0
 1
(bkm177)
100
AcDbText
 0
TEXT
  5
3fec
330
1F
100
AcDbEntity
  8
Positions
 62
7
  7
Standard
100
AcDbText
 10
388092.57966817083
 20
683607.2572946924
 30
188.6627722168634
 40
0.20000000298023224
 50
0.0
 1
 E: 388092.5797m N: 683607.7573m
100
AcDbText
 0
TEXT
  5
3fed
330
1F
100
AcDbEntity
  8
Heights
 62
24
  7
Standard
100
AcDbText
 10
388092.57966817083
 20
683606.7572946895
 30
188.6627722168634
 40
0.20000000298023224
 50
0.0
 1
 H: 188.6628m
100
AcDbText
 0
POINT
  5
3fee
330
1F
100
AcDbEntity
8
Survey.td2
100
AcDbPoint
10
388203.66841523856
20
683658.7795499158
30
189.1588554126539
 0
TEXT
  5
3fef
330
1F
100
AcDbEntity
  8
Survey.td2_Mark
  7
Standard
100
AcDbText
 10
388203.66841523856
 20
683658.7795499158
 30
189.1588554126539
 40
0.20000000298023224
 50
0.0
 1
 39
100
AcDbText
 0
TEXT
  5
3ff0
330
1F
100
AcDbEntity
  8
Survey.td2_point_desc_Mark
  7
Standard
100
AcDbText
 10
388203.66841523856
 20
683659.0795499203
 30
189.1588554126539
 40
0.20000000298023224
 50
0.0
 1
(4)
100
AcDbText
 0
TEXT
  5
3ff1
330
1F
100
AcDbEntity
  8
Positions
 62
7
  7
Standard
100
AcDbText
 10
388203.66841523856
 20
683658.2795499128
 30
189.1588554126539
 40
0.20000000298023224
 50
0.0
 1
 E: 388203.6684m N: 683658.7795m
100
AcDbText
 0
TEXT
  5
3ff2
330
1F
100
AcDbEntity
  8
Heights
 62
24
  7
Standard
100
AcDbText
 10
388203.66841523856
 20
683657.7795499099
 30
189.1588554126539
 40
0.20000000298023224
 50
0.0
 1
 H: 189.1589m
100
AcDbText
 0
POINT
  5
3ff3
330
1F
100
AcDbEntity
8
Survey.td2
100
AcDbPoint
10
388203.66702252004
20
683658.7774448721
30
189.1558553696704
 0
TEXT
  5
3ff4
330
1F
100
AcDbEntity
  8
Survey.td2_Mark
  7
Standard
100
AcDbText
 10
388203.66702252004
 20
683658.7774448721
 30
189.1558553696704
 40
0.20000000298023224
 50
0.0
 1
 40
100
AcDbText
 0
TEXT
  5
3ff5
330
1F
100
AcDbEntity
  8
Survey.td2_point_desc_Mark
  7
Standard
100
AcDbText
 10
388203.66702252004
 20
683659.0774448765
 30
189.1558553696704
 40
0.20000000298023224
 50
0.0
 1
(lp)
100
AcDbText
 0
TEXT
  5
3ff6
330
1F
100
AcDbEntity
  8
Positions
 62
7
  7
Standard
100
AcDbText
 10
388203.66702252004
 20
683658.277444869
 30
189.1558553696704
 40
0.20000000298023224
 50
0.0
 1
 E: 388203.667m N: 683658.7774m
100
AcDbText
 0
TEXT
  5
3ff7
330
1F
100
AcDbEntity
  8
Heights
 62
24
  7
Standard
100
AcDbText
 10
388203.66702252004
 20
683657.7774448661
 30
189.1558553696704
 40
0.20000000298023224
 50
0.0
 1
 H: 189.1559m
100
AcDbText
 0
POINT
  5
3ff8
330
1F
100
AcDbEntity
8
Survey.td2
100
AcDbPoint
10
388204.98815582023
20
683651.7865263909
30
188.6477150049889
 0
TEXT
  5
3ff9
330
1F
100
AcDbEntity
  8
Survey.td2_Mark
  7
Standard
100
AcDbText
 10
388204.98815582023
 20
683651.7865263909
 30
188.6477150049889
 40
0.20000000298023224
 50
0.0
 1
 41
100
AcDbText
 0
TEXT
  5
3ffa
330
1F
100
AcDbEntity
  8
Survey.td2_point_desc_Mark
  7
Standard
100
AcDbText
 10
388204.98815582023
 20
683652.0865263954
 30
188.6477150049889
 40
0.20000000298023224
 50
0.0
 1
(T)
100
AcDbText
 0
TEXT
  5
3ffb
330
1F
100
AcDbEntity
  8
Positions
 62
7
  7
Standard
100
AcDbText
 10
388204.98815582023
 20
683651.2865263879
 30
188.6477150049889
 40
0.20000000298023224
 50
0.0
 1
 E: 388204.9882m N: 683651.7865m
100
AcDbText
 0
TEXT
  5
3ffc
330
1F
100
AcDbEntity
  8
Heights
 62
24
  7
Standard
100
AcDbText
 10
388204.98815582023
 20
683650.786526385
 30
188.6477150049889
 40
0.20000000298023224
 50
0.0
 1
 H: 188.6477m
100
AcDbText
 0
POINT
  5
3ffd
330
1F
100
AcDbEntity
8
Survey.td2
100
AcDbPoint
10
388279.7449444475
20
683680.0036672237
30
189.55530830989315
 0
TEXT
  5
3ffe
330
1F
100
AcDbEntity
  8
Survey.td2_Mark
  7
Standard
100
AcDbText
 10
388279.7449444475
 20
683680.0036672237
 30
189.55530830989315
 40
0.20000000298023224
 50
0.0
 1
 42
100
AcDbText
 0
TEXT
  5
3fff
330
1F
100
AcDbEntity
  8
Survey.td2_point_desc_Mark
  7
Standard
100
AcDbText
 10
388279.7449444475
 20
683680.3036672282
 30
189.55530830989315
 40
0.20000000298023224
 50
0.0
 1
(T)
100
AcDbText
 0
TEXT
  5
4000
330
1F
100
AcDbEntity
  8
Positions
 62
7
  7
Standard
100
AcDbText
 10
388279.7449444475
 20
683679.5036672207
 30
189.55530830989315
 40
0.20000000298023224
 50
0.0
 1
 E: 388279.7449m N: 683680.0037m
100
AcDbText
 0
TEXT
  5
4001
330
1F
100
AcDbEntity
  8
Heights
 62
24
  7
Standard
100
AcDbText
 10
388279.7449444475
 20
683679.0036672178
 30
189.55530830989315
 40
0.20000000298023224
 50
0.0
 1
 H: 189.5553m
100
AcDbText
 0
POINT
  5
4002
330
1F
100
AcDbEntity
8
Survey.td2
100
AcDbPoint
10
388261.15296781703
20
683674.440340591
30
189.2521909822369
 0
TEXT
  5
4003
330
1F
100
AcDbEntity
  8
Survey.td2_Mark
  7
Standard
100
AcDbText
 10
388261.15296781703
 20
683674.440340591
 30
189.2521909822369
 40
0.20000000298023224
 50
0.0
 1
 43
100
AcDbText
 0
TEXT
  5
4004
330
1F
100
AcDbEntity
  8
Survey.td2_point_desc_Mark
  7
Standard
100
AcDbText
 10
388261.15296781703
 20
683674.7403405955
 30
189.2521909822369
 40
0.20000000298023224
 50
0.0
 1
(T)
100
AcDbText
 0
TEXT
  5
4005
330
1F
100
AcDbEntity
  8
Positions
 62
7
  7
Standard
100
AcDbText
 10
388261.15296781703
 20
683673.940340588
 30
189.2521909822369
 40
0.20000000298023224
 50
0.0
 1
 E: 388261.153m N: 683674.4403m
100
AcDbText
 0
TEXT
  5
4006
330
1F
100
AcDbEntity
  8
Heights
 62
24
  7
Standard
100
AcDbText
 10
388261.15296781703
 20
683673.4403405851
 30
189.2521909822369
 40
0.20000000298023224
 50
0.0
 1
 H: 189.2522m
100
AcDbText
 0
POINT
  5
4007
330
1F
100
AcDbEntity
8
Survey.td2
100
AcDbPoint
10
388261.62185116456
20
683669.2695706568
30
189.15408680841736
 0
TEXT
  5
4008
330
1F
100
AcDbEntity
  8
Survey.td2_Mark
  7
Standard
100
AcDbText
 10
388261.62185116456
 20
683669.2695706568
 30
189.15408680841736
 40
0.20000000298023224
 50
0.0
 1
 44
100
AcDbText
 0
TEXT
  5
4009
330
1F
100
AcDbEntity
  8
Survey.td2_point_desc_Mark
  7
Standard
100
AcDbText
 10
388261.62185116456
 20
683669.5695706613
 30
189.15408680841736
 40
0.20000000298023224
 50
0.0
 1
(T)
100
AcDbText
 0
TEXT
  5
400a
330
1F
100
AcDbEntity
  8
Positions
 62
7
  7
Standard
100
AcDbText
 10
388261.62185116456
 20
683668.7695706538
 30
189.15408680841736
 40
0.20000000298023224
 50
0.0
 1
 E: 388261.6219m N: 683669.2696m
100
AcDbText
 0
TEXT
  5
400b
330
1F
100
AcDbEntity
  8
Heights
 62
24
  7
Standard
100
AcDbText
 10
388261.62185116456
 20
683668.2695706509
 30
189.15408680841736
 40
0.20000000298023224
 50
0.0
 1
 H: 189.1541m
100
AcDbText
 0
POINT
  5
400c
330
1F
100
AcDbEntity
8
Survey.td2
100
AcDbPoint
10
388286.3397998136
20
683675.0141636311
30
189.66020926377593
 0
TEXT
  5
400d
330
1F
100
AcDbEntity
  8
Survey.td2_Mark
  7
Standard
100
AcDbText
 10
388286.3397998136
 20
683675.0141636311
 30
189.66020926377593
 40
0.20000000298023224
 50
0.0
 1
 45
100
AcDbText
 0
TEXT
  5
400e
330
1F
100
AcDbEntity
  8
Survey.td2_point_desc_Mark
  7
Standard
100
AcDbText
 10
388286.3397998136
 20
683675.3141636356
 30
189.66020926377593
 40
0.20000000298023224
 50
0.0
 1
(T)
100
AcDbText
 0
TEXT
  5
400f
330
1F
100
AcDbEntity
  8
Positions
 62
7
  7
Standard
100
AcDbText
 10
388286.3397998136
 20
683674.5141636281
 30
189.66020926377593
 40
0.20000000298023224
 50
0.0
 1
 E: 388286.3398m N: 683675.0142m
100
AcDbText
 0
TEXT
  5
4010
330
1F
100
AcDbEntity
  8
Heights
 62
24
  7
Standard
100
AcDbText
 10
388286.3397998136
 20
683674.0141636252
 30
189.66020926377593
 40
0.20000000298023224
 50
0.0
 1
 H: 189.6602m
100
AcDbText
 0
POINT
  5
4011
330
1F
100
AcDbEntity
8
Survey.td2
100
AcDbPoint
10
388207.6134441533
20
683731.9282403252
30
188.44433349333826
 0
TEXT
  5
4012
330
1F
100
AcDbEntity
  8
Survey.td2_Mark
  7
Standard
100
AcDbText
 10
388207.6134441533
 20
683731.9282403252
 30
188.44433349333826
 40
0.20000000298023224
 50
0.0
 1
 46
100
AcDbText
 0
TEXT
  5
4013
330
1F
100
AcDbEntity
  8
Survey.td2_point_desc_Mark
  7
Standard
100
AcDbText
 10
388207.6134441533
 20
683732.2282403297
 30
188.44433349333826
 40
0.20000000298023224
 50
0.0
 1
(lp)
100
AcDbText
 0
TEXT
  5
4014
330
1F
100
AcDbEntity
  8
Positions
 62
7
  7
Standard
100
AcDbText
 10
388207.6134441533
 20
683731.4282403222
 30
188.44433349333826
 40
0.20000000298023224
 50
0.0
 1
 E: 388207.6134m N: 683731.9282m
100
AcDbText
 0
TEXT
  5
4015
330
1F
100
AcDbEntity
  8
Heights
 62
24
  7
Standard
100
AcDbText
 10
388207.6134441533
 20
683730.9282403192
 30
188.44433349333826
 40
0.20000000298023224
 50
0.0
 1
 H: 188.4443m
100
AcDbText
 0
POINT
  5
4016
330
1F
100
AcDbEntity
8
Survey.td2
100
AcDbPoint
10
388210.589110873
20
683721.0553121316
30
188.64811492434427
 0
TEXT
  5
4017
330
1F
100
AcDbEntity
  8
Survey.td2_Mark
  7
Standard
100
AcDbText
 10
388210.589110873
 20
683721.0553121316
 30
188.64811492434427
 40
0.20000000298023224
 50
0.0
 1
 47
100
AcDbText
 0
TEXT
  5
4018
330
1F
100
AcDbEntity
  8
Survey.td2_point_desc_Mark
  7
Standard
100
AcDbText
 10
388210.589110873
 20
683721.3553121361
 30
188.64811492434427
 40
0.20000000298023224
 50
0.0
 1
(lp)
100
AcDbText
 0
TEXT
  5
4019
330
1F
100
AcDbEntity
  8
Positions
 62
7
  7
Standard
100
AcDbText
 10
388210.589110873
 20
683720.5553121286
 30
188.64811492434427
 40
0.20000000298023224
 50
0.0
 1
 E: 388210.5891m N: 683721.0553m
100
AcDbText
 0
TEXT
  5
401a
330
1F
100
AcDbEntity
  8
Heights
 62
24
  7
Standard
100
AcDbText
 10
388210.589110873
 20
683720.0553121257
 30
188.64811492434427
 40
0.20000000298023224
 50
0.0
 1
 H: 188.6481m
100
AcDbText
 0
POINT
  5
401b
330
1F
100
AcDbEntity
8
Survey.td2
100
AcDbPoint
10
388207.23521368013
20
683720.0671555443
30
188.041093632994
 0
TEXT
  5
401c
330
1F
100
AcDbEntity
  8
Survey.td2_Mark
  7
Standard
100
AcDbText
 10
388207.23521368013
 20
683720.0671555443
 30
188.041093632994
 40
0.20000000298023224
 50
0.0
 1
 48
100
AcDbText
 0
TEXT
  5
401d
330
1F
100
AcDbEntity
  8
Survey.td2_point_desc_Mark
  7
Standard
100
AcDbText
 10
388207.23521368013
 20
683720.3671555488
 30
188.041093632994
 40
0.20000000298023224
 50
0.0
 1
(lp)
100
AcDbText
 0
TEXT
  5
401e
330
1F
100
AcDbEntity
  8
Positions
 62
7
  7
Standard
100
AcDbText
 10
388207.23521368013
 20
683719.5671555413
 30
188.041093632994
 40
0.20000000298023224
 50
0.0
 1
 E: 388207.2352m N: 683720.0672m
100
AcDbText
 0
TEXT
  5
401f
330
1F
100
AcDbEntity
  8
Heights
 62
24
  7
Standard
100
AcDbText
 10
388207.23521368013
 20
683719.0671555384
 30
188.041093632994
 40
0.20000000298023224
 50
0.0
 1
 H: 188.0411m
100
AcDbText
 0
POINT
  5
4020
330
1F
100
AcDbEntity
8
Survey.td2
100
AcDbPoint
10
388164.6476772636
20
683718.9169740228
30
188.07605167698296
 0
TEXT
  5
4021
330
1F
100
AcDbEntity
  8
Survey.td2_Mark
  7
Standard
100
AcDbText
 10
388164.6476772636
 20
683718.9169740228
 30
188.07605167698296
 40
0.20000000298023224
 50
0.0
 1
 49
100
AcDbText
 0
TEXT
  5
4022
330
1F
100
AcDbEntity
  8
Survey.td2_point_desc_Mark
  7
Standard
100
AcDbText
 10
388164.6476772636
 20
683719.2169740272
 30
188.07605167698296
 40
0.20000000298023224
 50
0.0
 1
(lp)
100
AcDbText
 0
TEXT
  5
4023
330
1F
100
AcDbEntity
  8
Positions
 62
7
  7
Standard
100
AcDbText
 10
388164.6476772636
 20
683718.4169740197
 30
188.07605167698296
 40
0.20000000298023224
 50
0.0
 1
 E: 388164.6477m N: 683718.917m
100
AcDbText
 0
TEXT
  5
4024
330
1F
100
AcDbEntity
  8
Heights
 62
24
  7
Standard
100
AcDbText
 10
388164.6476772636
 20
683717.9169740168
 30
188.07605167698296
 40
0.20000000298023224
 50
0.0
 1
 H: 188.0761m
100
AcDbText
 0
POINT
  5
4025
330
1F
100
AcDbEntity
8
Survey.td2
100
AcDbPoint
10
388165.5321333506
20
683675.8901329418
30
188.12118372283527
 0
TEXT
  5
4026
330
1F
100
AcDbEntity
  8
Survey.td2_Mark
  7
Standard
100
AcDbText
 10
388165.5321333506
 20
683675.8901329418
 30
188.12118372283527
 40
0.20000000298023224
 50
0.0
 1
 50
100
AcDbText
 0
TEXT
  5
4027
330
1F
100
AcDbEntity
  8
Survey.td2_point_desc_Mark
  7
Standard
100
AcDbText
 10
388165.5321333506
 20
683676.1901329462
 30
188.12118372283527
 40
0.20000000298023224
 50
0.0
 1
(lp)
100
AcDbText
 0
TEXT
  5
4028
330
1F
100
AcDbEntity
  8
Positions
 62
7
  7
Standard
100
AcDbText
 10
388165.5321333506
 20
683675.3901329387
 30
188.12118372283527
 40
0.20000000298023224
 50
0.0
 1
 E: 388165.5321m N: 683675.8901m
100
AcDbText
 0
TEXT
  5
4029
330
1F
100
AcDbEntity
  8
Heights
 62
24
  7
Standard
100
AcDbText
 10
388165.5321333506
 20
683674.8901329358
 30
188.12118372283527
 40
0.20000000298023224
 50
0.0
 1
 H: 188.1212m
100
AcDbText
 0
POINT
  5
402a
330
1F
100
AcDbEntity
8
Survey.td2
100
AcDbPoint
10
388166.37668446725
20
683649.7277749375
30
188.0086568256664
 0
TEXT
  5
402b
330
1F
100
AcDbEntity
  8
Survey.td2_Mark
  7
Standard
100
AcDbText
 10
388166.37668446725
 20
683649.7277749375
 30
188.0086568256664
 40
0.20000000298023224
 50
0.0
 1
 51
100
AcDbText
 0
TEXT
  5
402c
330
1F
100
AcDbEntity
  8
Survey.td2_point_desc_Mark
  7
Standard
100
AcDbText
 10
388166.37668446725
 20
683650.027774942
 30
188.0086568256664
 40
0.20000000298023224
 50
0.0
 1
(lp)
100
AcDbText
 0
TEXT
  5
402d
330
1F
100
AcDbEntity
  8
Positions
 62
7
  7
Standard
100
AcDbText
 10
388166.37668446725
 20
683649.2277749345
 30
188.0086568256664
 40
0.20000000298023224
 50
0.0
 1
 E: 388166.3767m N: 683649.7278m
100
AcDbText
 0
TEXT
  5
402e
330
1F
100
AcDbEntity
  8
Heights
 62
24
  7
Standard
100
AcDbText
 10
388166.37668446725
 20
683648.7277749316
 30
188.0086568256664
 40
0.20000000298023224
 50
0.0
 1
 H: 188.0087m
100
AcDbText
 0
POINT
  5
402f
330
1F
100
AcDbEntity
8
Survey.td2
100
AcDbPoint
10
388167.17855854664
20
683648.3172484641
30
188.37662878849702
 0
TEXT
  5
4030
330
1F
100
AcDbEntity
  8
Survey.td2_Mark
  7
Standard
100
AcDbText
 10
388167.17855854664
 20
683648.3172484641
 30
188.37662878849702
 40
0.20000000298023224
 50
0.0
 1
 52
100
AcDbText
 0
TEXT
  5
4031
330
1F
100
AcDbEntity
  8
Survey.td2_point_desc_Mark
  7
Standard
100
AcDbText
 10
388167.17855854664
 20
683648.6172484686
 30
188.37662878849702
 40
0.20000000298023224
 50
0.0
 1
(s)
100
AcDbText
 0
TEXT
  5
4032
330
1F
100
AcDbEntity
  8
Positions
 62
7
  7
Standard
100
AcDbText
 10
388167.17855854664
 20
683647.8172484611
 30
188.37662878849702
 40
0.20000000298023224
 50
0.0
 1
 E: 388167.1786m N: 683648.3172m
100
AcDbText
 0
TEXT
  5
4033
330
1F
100
AcDbEntity
  8
Heights
 62
24
  7
Standard
100
AcDbText
 10
388167.17855854664
 20
683647.3172484582
 30
188.37662878849702
 40
0.20000000298023224
 50
0.0
 1
 H: 188.3766m
100
AcDbText
 0
POINT
  5
4034
330
1F
100
AcDbEntity
8
Survey.td2
100
AcDbPoint
10
388204.3695874755
20
683750.1885869661
30
188.9047014431669
 0
TEXT
  5
4035
330
1F
100
AcDbEntity
  8
Survey.td2_Mark
  7
Standard
100
AcDbText
 10
388204.3695874755
 20
683750.1885869661
 30
188.9047014431669
 40
0.20000000298023224
 50
0.0
 1
 53
100
AcDbText
 0
TEXT
  5
4036
330
1F
100
AcDbEntity
  8
Survey.td2_point_desc_Mark
  7
Standard
100
AcDbText
 10
388204.3695874755
 20
683750.4885869706
 30
188.9047014431669
 40
0.20000000298023224
 50
0.0
 1
(stb)
100
AcDbText
 0
TEXT
  5
4037
330
1F
100
AcDbEntity
  8
Positions
 62
7
  7
Standard
100
AcDbText
 10
388204.3695874755
 20
683749.6885869631
 30
188.9047014431669
 40
0.20000000298023224
 50
0.0
 1
 E: 388204.3696m N: 683750.1886m
100
AcDbText
 0
TEXT
  5
4038
330
1F
100
AcDbEntity
  8
Heights
 62
24
  7
Standard
100
AcDbText
 10
388204.3695874755
 20
683749.1885869602
 30
188.9047014431669
 40
0.20000000298023224
 50
0.0
 1
 H: 188.9047m
100
AcDbText
0
ENDSEC
  0
SECTION
  2
OBJECTS
  0
DICTIONARY
  5
C
330
0
100
AcDbDictionary
281
     1
  3
ACAD_COLOR
350
6B
  3
ACAD_GROUP
350
D
  3
ACAD_LAYOUT
350
1A
  3
ACAD_MATERIAL
350
6A
  3
ACAD_MLINESTYLE
350
17
  3
ACAD_PLOTSETTINGS
350
19
  3
ACAD_PLOTSTYLENAME
350
E
  3
ACDBHEADERROUNDTRIPXREC
350
3F0E
  3
AcDbVariableDictionary
350
5E
  0
DICTIONARY
  5
6B
102
{ACAD_REACTORS
330
C
102
}
330
C
100
AcDbDictionary
281
     1
  0
DICTIONARY
  5
D
102
{ACAD_REACTORS
330
C
102
}
330
C
100
AcDbDictionary
281
     1
  0
DICTIONARY
  5
1A
102
{ACAD_REACTORS
330
C
102
}
330
C
100
AcDbDictionary
281
     1
  3
Model
350
22
  3
Layout1
350
51
  3
Layout2
350
56
  0
DICTIONARY
  5
6A
102
{ACAD_REACTORS
330
C
102
}
330
C
100
AcDbDictionary
281
     1
  0
DICTIONARY
  5
17
102
{ACAD_REACTORS
330
C
102
}
330
C
100
AcDbDictionary
281
     1
  3
Standard
350
18
  0
DICTIONARY
  5
19
102
{ACAD_REACTORS
330
C
102
}
330
C
100
AcDbDictionary
281
     1
  0
ACDBDICTIONARYWDFLT
  5
E
102
{ACAD_REACTORS
330
C
102
}
330
C
100
AcDbDictionary
281
     1
  3
Normal
350
F
100
AcDbDictionaryWithDefault
340
F
  0
DICTIONARY
  5
3F0E
102
{ACAD_REACTORS
330
C
102
}
330
C
100
AcDbDictionary
281
     1
  3
COLORDICT
350
3F10
  3
MATERIALDICT
350
3F0F
  0
DICTIONARY
  5
5E
102
{ACAD_REACTORS
330
C
102
}
330
C
100
AcDbDictionary
281
     1
  3
DIMASSOC
350
5F
  3
HIDETEXT
350
63
  3
PROJECTNAME
350
3F0C
  0
LAYOUT
  5
22
102
{ACAD_XDICTIONARY
360
3F11
102
}
102
{ACAD_REACTORS
330
1A
102
}
330
1A
100
AcDbPlotSettings
  1

  2
none_device
  4
ANSI_A_(8.50_x_11.00_Inches)
  6

 40
6.349999904632568
 41
19.04999923706055
 42
6.350006103515625
 43
19.04998779296875
 44
215.8999938964844
 45
279.3999938964844
 46
0.0
 47
0.0
 48
0.0
 49
0.0
140
0.0
141
0.0
142
1.0
143
78.436453180766
 70
 11952
 72
     0
 73
     1
 74
     0
  7

 75
     0
147
0.0127491741332998
148
0.0
149
0.0
100
AcDbLayout
  1
Model
 70
     1
 71
     0
 10
0.0
 20
0.0
 11
12.0
 21
9.0
 12
0.0
 22
0.0
 32
0.0
 14
0.0
 24
0.0
 34
0.0
 15
0.0
 25
0.0
 35
0.0
146
0.0
 13
0.0
 23
0.0
 33
0.0
 16
1.0
 26
0.0
 36
0.0
 17
0.0
 27
1.0
 37
0.0
 76
     0
330
1F
  0
LAYOUT
  5
51
102
{ACAD_XDICTIONARY
360
3F13
102
}
102
{ACAD_REACTORS
330
1A
102
}
330
1A
100
AcDbPlotSettings
  1

  2
None
  4

  6

 40
0.0
 41
0.0
 42
0.0
 43
0.0
 44
0.0
 45
0.0
 46
0.0
 47
0.0
 48
0.0
 49
0.0
140
0.0
141
0.0
142
1.0
143
1.0
 70
   688
 72
     0
 73
     0
 74
     5
  7

 75
    16
147
1.0
148
0.0
149
0.0
100
AcDbLayout
  1
Layout1
 70
     1
 71
     1
 10
0.0
 20
0.0
 11
12.0
 21
9.0
 12
0.0
 22
0.0
 32
0.0
 14
0.0
 24
0.0
 34
0.0
 15
0.0
 25
0.0
 35
0.0
146
0.0
 13
0.0
 23
0.0
 33
0.0
 16
1.0
 26
0.0
 36
0.0
 17
0.0
 27
1.0
 37
0.0
 76
     0
330
50
  0
LAYOUT
  5
56
102
{ACAD_XDICTIONARY
360
3F15
102
}
102
{ACAD_REACTORS
330
1A
102
}
330
1A
100
AcDbPlotSettings
  1

  2
None
  4

  6

 40
0.0
 41
0.0
 42
0.0
 43
0.0
 44
0.0
 45
0.0
 46
0.0
 47
0.0
 48
0.0
 49
0.0
140
0.0
141
0.0
142
1.0
143
1.0
 70
   688
 72
     0
 73
     0
 74
     5
  7

 75
    16
147
1.0
148
0.0
149
0.0
100
AcDbLayout
  1
Layout2
 70
     1
 71
     2
 10
0.0
 20
0.0
 11
12.0
 21
9.0
 12
0.0
 22
0.0
 32
0.0
 14
0.0
 24
0.0
 34
0.0
 15
0.0
 25
0.0
 35
0.0
146
0.0
 13
0.0
 23
0.0
 33
0.0
 16
1.0
 26
0.0
 36
0.0
 17
0.0
 27
1.0
 37
0.0
 76
     0
330
55
  0
MLINESTYLE
  5
18
102
{ACAD_REACTORS
330
17
102
}
330
17
100
AcDbMlineStyle
  2
STANDARD
 70
     0
  3

 62
   256
 51
90.0
 52
90.0
 71
     2
 49
0.5
 62
   256
  6
BYLAYER
 49
-0.5
 62
   256
  6
BYLAYER
  0
ACDBPLACEHOLDER
  5
6F
102
{ACAD_REACTORS
330
E
102
}
330
E
  0
XRECORD
  5
3F10
102
{ACAD_REACTORS
330
3F0E
102
}
330
3F0E
100
AcDbXrecord
280
     1
340
6B
  0
XRECORD
  5
3F0F
102
{ACAD_REACTORS
330
3F0E
102
}
330
3F0E
100
AcDbXrecord
280
     1
340
6A
  0
DICTIONARYVAR
  5
5F
102
{ACAD_REACTORS
330
5E
102
}
330
5E
100
DictionaryVariables
280
     0
  1
2
  0
DICTIONARYVAR
  5
63
102
{ACAD_REACTORS
330
5E
102
}
330
5E
100
DictionaryVariables
280
     0
  1
1
  0
DICTIONARYVAR
  5
3F0C
102
{ACAD_REACTORS
330
5E
102
}
330
5E
100
DictionaryVariables
280
     0
  1

  0
DICTIONARY
  5
3F11
330
22
100
AcDbDictionary
280
     1
281
     1
  3
ACAD_XREC_ROUNDTRIP
360
3F12
  0
DICTIONARY
  5
3F13
330
51
100
AcDbDictionary
280
     1
281
     1
  3
ACAD_XREC_ROUNDTRIP
360
3F14
  0
DICTIONARY
  5
3F15
330
56
100
AcDbDictionary
280
     1
281
     1
  3
ACAD_XREC_ROUNDTRIP
360
3F16
  0
XRECORD
  5
3F12
102
{ACAD_REACTORS
330
3F11
102
}
330
3F11
100
AcDbXrecord
280
     1
102
SHADEPLOT
 70
     0
102
SHADEPLOTRESLEVEL
 70
     2
102
SHADEPLOTCUSTOMDPI
 70
   300
  0
XRECORD
  5
3F14
102
{ACAD_REACTORS
330
3F13
102
}
330
3F13
100
AcDbXrecord
280
     1
102
SHADEPLOT
 70
     0
102
SHADEPLOTRESLEVEL
 70
     2
102
SHADEPLOTCUSTOMDPI
 70
   300
  0
XRECORD
  5
3F16
102
{ACAD_REACTORS
330
3F15
102
}
330
3F15
100
AcDbXrecord
280
     1
102
SHADEPLOT
 70
     0
102
SHADEPLOTRESLEVEL
 70
     2
102
SHADEPLOTCUSTOMDPI
 70
   300
  0
ENDSEC
  0
EOF
